<svg id="Layer_1" data-name="Layer 1" xmlns="http://www.w3.org/2000/svg" viewBox="0 0 533.04 225.78"><defs><style>.cls-1{fill:#fff;}.cls-1,.cls-10,.cls-11,.cls-12,.cls-2,.cls-20,.cls-21,.cls-24,.cls-25,.cls-3,.cls-4,.cls-5,.cls-6,.cls-7,.cls-8,.cls-9{stroke:#000;stroke-linecap:square;stroke-miterlimit:10;stroke-width:0;}.cls-2,.cls-20{fill:#9bb500;}.cls-10,.cls-11,.cls-2,.cls-3,.cls-4,.cls-5,.cls-6,.cls-7,.cls-8,.cls-9{fill-rule:evenodd;}.cls-3{fill:#fbcf02;}.cls-4{fill:#decc00;}.cls-5{fill:#e7cf00;}.cls-6{fill:#a72e29;}.cls-24,.cls-7{fill:#d98e12;}.cls-12,.cls-8{fill:green;}.cls-25,.cls-9{fill:brown;}.cls-10{fill:#e19e0e;}.cls-11{fill:#67a300;}.cls-13{font-size:8.42px;font-family:ArialMT, Arial;}.cls-14{letter-spacing:-0.01em;}.cls-15{letter-spacing:0em;}.cls-16{letter-spacing:0em;}.cls-17{letter-spacing:0.03em;}.cls-18{letter-spacing:-0.11em;}.cls-19{letter-spacing:-0.04em;}.cls-21{fill:gold;}.cls-22{letter-spacing:-0.04em;}.cls-23{letter-spacing:-0.01em;}.cls-26{letter-spacing:0.04em;}</style></defs><title>USFASOM_10region</title><rect class="cls-1" width="532.28" height="225.01"/><polygon class="cls-2" points="190.43 40.56 190.43 44.39 190.43 48.22 190.43 48.22 190.43 51.28 191.19 54.34 190.43 54.34 191.19 58.93 191.19 62.76 191.19 68.12 191.19 71.18 191.19 71.94 191.19 73.47 191.19 77.3 195.01 77.3 197.31 77.3 203.43 77.3 204.19 77.3 209.54 77.3 209.54 79.6 209.54 80.36 209.54 82.66 209.54 83.42 209.54 86.48 209.54 90.31 209.54 90.31 209.54 94.9 209.54 95.67 209.54 98.73 209.54 99.5 209.54 102.56 209.54 102.56 209.54 107.15 209.54 108.68 209.54 110.98 209.54 114.04 200.37 114.04 200.37 118.63 200.37 118.63 200.37 123.22 200.37 125.52 200.37 127.05 200.37 130.88 200.37 133.17 200.37 135.47 200.37 139.29 200.37 143.89 200.37 146.18 200.37 147.71 200.37 151.54 200.37 155.37 200.37 159.96 200.37 160.72 197.31 160.72 193.49 160.72 191.19 160.72 191.19 160.72 183.54 160.72 182.78 160.72 172.84 160.72 169.78 160.72 167.48 160.72 166.72 160.72 166.72 160.72 166.72 161.49 166.72 161.49 167.48 162.25 167.48 162.25 168.25 162.25 161.37 162.25 152.19 162.25 152.19 166.85 144.54 166.85 131.54 166.85 126.19 166.85 123.13 166.08 105.54 159.96 91.77 156.13 91.77 154.6 92.54 153.84 92.54 153.84 92.54 153.84 93.3 153.84 93.3 153.84 94.07 153.84 94.07 153.84 94.07 153.84 94.07 153.07 94.07 153.07 94.07 153.07 94.07 153.07 94.07 153.07 94.07 153.07 94.83 152.31 94.83 151.54 94.83 151.54 94.07 150.78 94.07 150.78 93.3 150.78 93.3 150.78 93.3 150.78 93.3 150.78 92.54 150.01 92.54 150.01 92.54 150.01 92.54 149.24 92.54 149.24 92.54 148.48 92.54 148.48 92.54 147.71 92.54 147.71 93.3 147.71 93.3 146.95 93.3 146.95 93.3 146.95 93.3 146.18 94.07 146.18 94.07 146.18 94.07 145.42 94.07 145.42 94.07 144.65 94.83 144.65 94.07 144.65 94.07 143.89 94.07 143.89 94.07 143.12 94.07 143.12 94.83 142.36 94.07 142.36 94.07 142.36 94.83 141.59 94.83 141.59 95.59 140.82 96.36 140.82 96.36 140.06 97.13 140.06 97.89 139.29 97.89 139.29 97.89 139.29 97.89 138.53 97.13 138.53 96.36 138.53 96.36 138.53 96.36 137.76 96.36 137.76 95.59 137.76 95.59 137.76 95.59 137 95.59 136.23 94.83 136.23 94.83 136.23 94.83 135.47 94.83 135.47 94.07 134.7 94.07 134.7 94.07 133.94 93.3 133.94 93.3 133.17 93.3 133.17 93.3 132.41 93.3 132.41 84.12 125.52 81.83 123.22 69.59 114.8 63.48 110.21 58.12 106.38 51.24 101.03 49.71 100.26 47.41 98.73 44.36 96.44 43.59 95.67 43.59 94.9 43.59 94.9 43.59 94.14 43.59 92.61 43.59 91.84 43.59 88.78 43.59 75.77 43.59 68.12 49.71 68.12 49.71 68.12 60.42 68.12 71.12 68.12 71.12 52.81 71.12 52.04 71.12 51.28 71.12 51.28 71.12 51.28 71.12 51.28 71.12 51.28 71.89 50.51 71.89 50.51 71.89 50.51 71.89 49.75 71.89 49.75 71.89 48.98 71.89 48.98 71.89 48.98 72.65 48.22 71.89 48.22 71.89 47.45 71.89 47.45 71.12 47.45 71.12 47.45 71.12 47.45 70.36 47.45 70.36 47.45 70.36 47.45 70.36 47.45 69.59 47.45 69.59 46.69 69.59 46.69 69.59 46.69 68.83 45.92 69.59 45.92 69.59 45.16 69.59 45.16 69.59 45.16 70.36 44.39 70.36 44.39 70.36 44.39 70.36 43.63 71.12 42.86 71.12 42.86 71.89 42.09 71.89 42.09 72.65 42.09 72.65 41.33 72.65 41.33 72.65 40.56 72.65 40.56 72.65 40.56 72.65 40.56 72.65 40.56 72.65 40.56 73.42 39.8 73.42 39.8 73.42 39.8 73.42 39.03 74.18 39.03 74.18 38.27 74.18 37.5 75.71 35.97 75.71 35.97 76.48 35.21 76.48 34.44 75.71 34.44 75.71 33.68 75.71 33.68 74.18 32.91 74.18 32.91 73.42 32.91 73.42 32.91 72.65 32.15 72.65 31.38 71.89 31.38 71.89 30.61 71.12 30.61 71.89 30.61 71.89 29.85 71.89 29.08 71.89 29.08 71.12 28.32 71.12 28.32 71.12 27.55 71.12 27.55 71.12 27.55 71.12 26.02 71.12 20.66 71.12 19.9 71.12 18.37 71.12 13.01 71.12 12.25 71.12 4.59 71.12 3.06 80.3 3.06 92.54 3.06 98.66 3.06 115.48 3.06 123.89 3.06 129.25 3.06 140.72 3.06 152.19 3.06 162.13 3.06 172.07 3.06 181.25 3.06 190.43 3.06 191.19 6.89 191.19 9.18 191.19 13.01 191.19 18.37 191.19 19.13 191.19 25.26 191.19 26.02 191.19 28.32 191.19 31.38 191.19 32.15 191.19 38.27 191.19 40.56 190.43 40.56"/><polygon class="cls-3" points="43.59 68.12 43.59 75.77 43.59 88.78 43.59 91.84 43.59 92.61 43.59 94.14 43.59 94.9 43.59 94.9 43.59 95.67 44.36 96.44 47.41 98.73 49.71 100.26 51.24 101.03 58.12 106.38 63.48 110.21 69.59 114.8 81.83 123.22 84.12 125.52 93.3 132.41 93.3 132.41 93.3 133.17 93.3 133.17 93.3 133.94 94.07 133.94 94.07 134.7 94.07 134.7 94.83 135.47 94.83 135.47 94.83 136.23 94.83 136.23 95.59 136.23 95.59 137 95.59 137.76 95.59 137.76 96.36 137.76 96.36 137.76 96.36 138.53 96.36 138.53 97.13 138.53 97.89 138.53 97.89 139.29 97.89 139.29 97.89 139.29 97.13 140.06 96.36 140.06 96.36 140.82 95.59 140.82 94.83 141.59 94.83 141.59 94.07 142.36 94.07 142.36 94.83 142.36 94.07 143.12 94.07 143.12 94.07 143.89 94.07 143.89 94.07 144.65 94.83 144.65 94.07 144.65 94.07 145.42 94.07 145.42 94.07 146.18 94.07 146.18 93.3 146.18 93.3 146.95 93.3 146.95 93.3 146.95 93.3 147.71 92.54 147.71 92.54 147.71 92.54 148.48 92.54 148.48 92.54 149.24 92.54 149.24 92.54 150.01 92.54 150.01 92.54 150.01 93.3 150.78 93.3 150.78 93.3 150.78 93.3 150.78 94.07 150.78 94.07 150.78 94.83 151.54 94.83 151.54 94.83 152.31 94.07 153.07 94.07 153.07 94.07 153.07 94.07 153.07 94.07 153.07 94.07 153.07 94.07 153.84 94.07 153.84 94.07 153.84 93.3 153.84 93.3 153.84 92.54 153.84 92.54 153.84 92.54 153.84 79.53 154.6 70.36 155.37 69.59 153.84 70.36 154.6 70.36 153.84 69.59 153.84 68.83 153.84 68.83 152.31 68.83 152.31 68.06 150.01 67.3 149.24 65.77 147.71 61.18 144.65 59.65 143.89 59.65 144.65 58.12 144.65 58.12 143.89 58.89 143.89 58.12 143.12 57.36 141.59 55.06 141.59 53.53 141.59 51.24 140.82 50.47 140.06 48.18 138.53 47.41 137.76 45.12 138.53 43.59 137.76 42.06 137.76 39.77 137.76 39 137 37.47 137 38.24 135.47 37.47 134.7 38.24 133.94 37.47 133.94 37.47 133.17 38.24 132.41 37.47 131.64 35.94 130.88 35.18 130.11 35.94 129.34 35.94 128.58 34.41 128.58 32.88 127.05 32.12 126.28 31.36 125.52 30.59 124.75 28.3 121.69 26 120.93 26 117.86 26 117.86 26.77 117.86 26.77 117.86 27.53 115.57 26.77 115.57 26 114.8 24.47 114.8 23.71 114.04 22.94 113.27 21.41 111.74 21.41 110.98 21.41 110.21 20.65 109.45 20.65 107.92 20.65 107.15 21.41 107.15 22.18 107.92 22.18 107.92 22.18 108.68 24.47 110.21 25.24 110.21 24.47 109.45 23.71 107.15 22.18 107.15 22.18 106.38 21.41 105.62 21.41 105.62 22.18 104.85 25.24 104.85 28.3 104.85 28.3 104.09 29.06 104.09 29.06 104.09 29.06 104.09 29.06 104.09 29.06 104.09 28.3 104.09 28.3 103.32 27.53 104.09 26 104.09 25.24 104.09 22.94 104.09 22.94 103.32 22.18 103.32 22.18 103.32 22.94 103.32 22.94 104.09 21.41 103.32 21.41 104.09 20.65 104.09 20.65 103.32 20.65 104.09 20.65 104.85 21.41 104.85 20.65 105.62 20.65 106.38 20.65 106.38 19.12 105.62 19.12 106.38 17.59 104.85 16.82 104.85 16.06 104.85 16.06 104.85 16.82 103.32 16.06 102.56 15.29 102.56 14.53 101.03 13 100.26 11.47 97.97 9.18 96.44 9.94 95.67 8.41 92.61 9.18 91.08 8.41 89.55 8.41 88.02 6.88 86.48 6.12 85.72 3.82 84.19 3.82 83.42 3.06 82.66 6.12 77.3 5.35 75.77 6.12 74.24 6.12 73.47 5.35 70.41 4.59 70.41 4.59 69.65 4.59 68.12 3.82 67.35 3.06 65.82 3.06 64.29 3.06 62.76 3.06 61.99 1.53 60.46 2.29 58.93 3.06 56.64 3.06 55.87 4.59 54.34 4.59 53.58 5.35 51.28 5.35 47.45 6.12 43.63 6.12 42.09 6.88 39.8 6.88 37.5 6.88 35.97 7.65 35.97 7.65 35.97 8.41 35.97 6.88 35.21 7.65 33.68 6.88 32.91 6.88 32.15 6.88 31.38 7.65 31.38 6.88 29.08 8.41 29.85 9.18 29.85 8.41 29.08 9.18 29.08 9.18 29.85 9.94 29.85 11.47 29.08 13 29.85 13 29.85 11.47 28.32 9.94 29.08 9.18 28.32 7.65 29.08 6.88 28.32 6.12 28.32 6.12 25.26 6.88 26.02 6.88 27.55 8.41 27.55 7.65 26.79 7.65 26.79 6.88 25.26 7.65 25.26 8.41 24.49 7.65 24.49 6.12 24.49 6.12 24.49 6.12 23.73 5.35 22.96 6.12 22.96 6.12 22.96 6.12 23.73 6.12 22.96 8.41 22.2 6.88 22.2 6.12 21.43 5.35 21.43 5.35 22.2 5.35 20.66 4.59 19.13 3.82 18.37 3.82 16.84 3.06 16.07 2.29 14.54 1.53 13.78 0 11.48 0 10.71 0 9.18 1.53 9.18 6.88 11.48 12.24 11.48 14.53 11.48 16.82 11.48 16.82 12.25 17.59 11.48 18.35 11.48 17.59 12.25 19.12 13.78 19.12 13.78 18.35 14.54 17.59 14.54 17.59 13.78 17.59 14.54 16.82 16.07 16.06 16.07 15.29 17.6 14.53 18.37 16.06 18.37 17.59 17.6 15.29 18.37 15.29 18.37 16.06 16.84 16.82 16.07 18.35 16.07 18.35 14.54 19.88 13.78 19.88 13.01 20.65 13.78 20.65 15.31 19.12 15.31 19.88 16.84 19.88 16.84 19.88 16.84 20.65 17.6 19.88 18.37 19.88 18.37 19.88 19.13 19.88 19.13 19.88 19.9 19.88 19.13 19.88 19.13 19.12 19.13 19.12 18.37 19.12 18.37 18.35 19.13 18.35 19.13 18.35 19.9 18.35 20.66 17.59 19.9 18.35 19.13 17.59 18.37 16.82 19.13 15.29 19.9 15.29 21.43 16.06 20.66 16.82 21.43 17.59 20.66 18.35 21.43 19.12 20.66 19.88 19.9 20.65 19.13 19.88 19.13 21.41 19.13 21.41 19.13 21.41 19.13 21.41 19.13 22.18 18.37 22.18 18.37 21.41 16.84 21.41 16.07 21.41 16.07 21.41 14.54 22.18 13.01 22.94 13.01 22.94 12.25 22.18 11.48 21.41 10.71 20.65 10.71 20.65 11.48 22.18 12.25 20.65 11.48 19.88 10.71 20.65 9.95 21.41 10.71 21.41 9.95 19.88 9.18 19.12 9.18 19.12 8.42 19.88 7.65 20.65 8.42 20.65 8.42 20.65 7.65 21.41 6.89 20.65 6.89 20.65 6.12 20.65 5.36 19.12 5.36 18.35 4.59 17.59 3.83 18.35 3.83 18.35 3.06 35.94 3.06 54.3 3.06 60.42 3.06 67.3 3.06 71.12 3.06 71.12 4.59 71.12 12.25 71.12 13.01 71.12 18.37 71.12 19.9 71.12 20.66 71.12 26.02 71.12 27.55 71.12 27.55 71.12 27.55 71.12 28.32 71.12 28.32 71.89 29.08 71.89 29.08 71.89 29.85 71.89 30.61 71.12 30.61 71.89 30.61 71.89 31.38 72.65 31.38 72.65 32.15 73.42 32.91 73.42 32.91 74.18 32.91 74.18 32.91 75.71 33.68 75.71 33.68 75.71 34.44 76.48 34.44 76.48 35.21 75.71 35.97 75.71 35.97 74.18 37.5 74.18 38.27 74.18 39.03 73.42 39.03 73.42 39.8 73.42 39.8 73.42 39.8 72.65 40.56 72.65 40.56 72.65 40.56 72.65 40.56 72.65 40.56 72.65 40.56 72.65 41.33 72.65 41.33 72.65 42.09 71.89 42.09 71.89 42.09 71.12 42.86 71.12 42.86 70.36 43.63 70.36 44.39 70.36 44.39 70.36 44.39 69.59 45.16 69.59 45.16 69.59 45.16 69.59 45.92 68.83 45.92 69.59 46.69 69.59 46.69 69.59 46.69 69.59 47.45 70.36 47.45 70.36 47.45 70.36 47.45 70.36 47.45 71.12 47.45 71.12 47.45 71.12 47.45 71.89 47.45 71.89 47.45 71.89 48.22 72.65 48.22 71.89 48.98 71.89 48.98 71.89 48.98 71.89 49.75 71.89 49.75 71.89 50.51 71.89 50.51 71.89 50.51 71.12 51.28 71.12 51.28 71.12 51.28 71.12 51.28 71.12 51.28 71.12 52.04 71.12 52.81 71.12 68.12 60.42 68.12 49.71 68.12 49.71 68.12 43.59 68.12"/><polygon class="cls-3" points="18.35 9.95 19.12 9.18 19.88 9.18 20.65 9.95 20.65 9.95 19.12 9.95 18.35 10.71 19.88 10.71 19.88 12.25 20.65 11.48 21.41 12.25 22.18 13.01 21.41 13.78 21.41 13.78 20.65 13.01 19.88 13.01 19.88 12.25 19.12 10.71 18.35 10.71 18.35 9.95"/><polygon class="cls-3" points="45.12 141.59 46.65 141.59 47.41 141.59 48.18 141.59 48.18 141.59 46.65 142.36 45.12 142.36 44.36 141.59 45.12 141.59 44.36 141.59 45.12 141.59"/><polygon class="cls-3" points="42.06 142.36 41.3 141.59 43.59 141.59 44.36 142.36 42.83 143.12 42.06 142.36"/><polygon class="cls-3" points="56.59 146.95 58.89 147.71 59.65 148.48 59.65 148.48 58.12 148.48 57.36 147.71 57.36 146.95 56.59 146.95"/><polygon class="cls-3" points="16.06 8.42 15.29 8.42 14.53 7.65 14.53 7.65 14.53 6.89 15.29 6.89 16.06 7.65 16.06 7.65 16.06 7.65 16.06 7.65 16.06 8.42 16.06 8.42"/><polygon class="cls-3" points="58.89 153.07 58.12 153.07 57.36 152.31 56.59 150.78 56.59 150.78 57.36 151.54 58.89 153.07"/><polygon class="cls-4" points="191.19 58.93 190.43 54.34 191.19 54.34 190.43 51.28 190.43 48.22 190.43 48.22 190.43 44.39 190.43 40.56 191.19 40.56 191.19 38.27 191.19 32.15 191.19 31.38 191.19 28.32 191.19 26.02 191.19 25.26 191.19 19.13 191.19 18.37 191.19 13.01 191.19 9.18 191.19 6.89 190.43 3.06 201.13 3.06 209.54 3.06 214.13 3.06 226.37 3.06 232.49 3.06 237.84 3.06 247.02 3.06 253.9 3.06 253.9 3.83 254.67 4.59 254.67 4.59 254.67 5.36 254.67 5.36 254.67 5.36 254.67 5.36 254.67 5.36 254.67 5.36 254.67 6.12 254.67 6.12 254.67 6.12 254.67 6.12 255.43 6.12 254.67 6.89 254.67 6.89 254.67 6.89 254.67 6.89 254.67 6.89 254.67 7.65 254.67 7.65 254.67 7.65 254.67 7.65 254.67 7.65 254.67 7.65 254.67 7.65 254.67 7.65 254.67 7.65 254.67 8.42 254.67 8.42 254.67 9.18 254.67 8.42 254.67 9.18 254.67 9.18 254.67 9.18 254.67 9.18 254.67 9.18 254.67 9.18 254.67 9.18 254.67 9.95 254.67 9.95 254.67 9.95 254.67 9.95 254.67 9.95 254.67 9.95 254.67 9.95 254.67 9.95 254.67 9.95 254.67 9.95 254.67 10.71 254.67 10.71 254.67 10.71 254.67 10.71 254.67 10.71 254.67 10.71 254.67 10.71 254.67 11.48 254.67 11.48 254.67 11.48 254.67 11.48 254.67 11.48 254.67 11.48 255.43 12.25 255.43 12.25 255.43 13.01 256.2 13.78 255.43 13.78 256.2 13.78 256.2 14.54 256.2 14.54 256.2 14.54 256.96 14.54 256.96 15.31 256.96 15.31 256.96 16.07 256.96 16.07 256.96 16.84 257.73 16.84 256.96 16.84 256.96 17.6 256.96 17.6 256.96 17.6 256.96 18.37 257.73 18.37 257.73 18.37 256.96 18.37 257.73 18.37 257.73 19.13 257.73 19.13 257.73 19.9 257.73 19.9 257.73 20.66 257.73 20.66 257.73 21.43 257.73 21.43 257.73 21.43 257.73 22.2 257.73 22.2 257.73 22.2 257.73 22.2 257.73 22.2 257.73 22.2 257.73 22.2 258.49 22.2 258.49 22.96 257.73 22.96 257.73 22.96 257.73 23.73 257.73 23.73 257.73 24.49 257.73 25.26 257.73 25.26 257.73 25.26 257.73 25.26 258.49 26.02 258.49 26.79 258.49 26.79 258.49 27.55 258.49 27.55 259.25 27.55 259.25 27.55 259.25 28.32 260.02 29.08 260.02 29.08 260.02 29.08 260.02 29.85 260.02 30.61 260.02 30.61 260.02 31.38 260.02 31.38 260.02 32.91 259.25 32.91 259.25 33.68 257.73 34.44 256.96 34.44 257.73 35.21 257.73 35.97 258.49 35.97 258.49 36.74 259.25 36.74 260.02 36.74 260.78 37.5 260.78 37.5 260.78 37.5 260.78 40.56 260.78 42.09 260.78 43.63 260.78 44.39 260.78 47.45 260.78 51.28 260.78 54.34 260.02 54.34 260.02 54.34 260.02 55.11 260.02 55.11 260.02 55.11 260.02 55.87 260.02 55.87 260.02 55.87 260.02 56.64 260.02 56.64 260.02 56.64 260.02 56.64 260.78 56.64 260.78 56.64 260.78 57.4 260.78 58.17 260.78 58.17 260.78 58.17 260.02 58.17 260.78 58.93 260.78 58.93 260.78 58.93 260.02 59.7 260.02 59.7 260.02 60.46 260.02 60.46 260.02 60.46 260.02 60.46 259.25 61.23 259.25 61.23 259.25 61.23 260.02 61.99 260.02 61.99 260.78 61.99 260.78 62.76 260.78 62.76 260.78 62.76 260.78 63.52 260.78 63.52 261.55 63.52 261.55 64.29 261.55 64.29 261.55 64.29 261.55 65.06 261.55 65.06 261.55 65.06 262.31 65.82 262.31 65.82 262.31 65.82 261.55 65.82 262.31 66.59 262.31 66.59 263.08 67.35 263.08 68.12 263.08 68.12 263.08 68.12 263.84 68.12 263.84 68.12 263.84 68.88 263.84 68.88 263.84 69.65 264.61 69.65 264.61 70.41 264.61 70.41 264.61 71.18 263.84 71.18 263.84 71.18 264.61 71.18 263.84 71.94 264.61 71.94 264.61 71.94 264.61 72.71 264.61 72.71 265.37 72.71 265.37 72.71 265.37 72.71 265.37 72.71 265.37 72.71 265.37 72.71 266.14 72.71 265.37 73.47 265.37 74.24 266.14 74.24 266.14 75 266.14 74.24 266.14 74.24 266.14 75 266.14 75.77 266.14 75.77 266.14 75.77 266.14 75.77 266.14 75.77 266.14 76.53 266.14 76.53 266.14 77.3 266.14 77.3 266.9 77.3 266.9 78.07 266.9 78.83 266.9 78.83 266.9 79.6 266.14 79.6 267.67 80.36 267.67 81.13 267.67 81.13 267.67 81.13 267.67 81.89 267.67 81.89 268.43 81.13 268.43 81.13 268.43 81.13 268.43 81.89 268.43 81.89 267.67 81.89 268.43 82.66 268.43 83.42 268.43 83.42 268.43 83.42 268.43 83.42 268.43 83.42 269.2 83.42 269.2 84.19 269.96 84.19 269.96 84.95 269.96 84.95 270.73 85.72 270.73 85.72 270.73 85.72 270.73 85.72 270.73 86.48 270.73 86.48 270.73 86.48 271.49 86.48 271.49 86.48 272.26 87.25 272.26 87.25 272.26 87.25 273.02 87.25 273.79 88.02 273.79 88.02 273.79 88.02 274.55 87.25 274.55 87.25 275.31 87.25 275.31 88.02 275.31 88.02 275.31 88.02 275.31 88.02 275.31 88.78 275.31 88.78 275.31 88.78 275.31 88.78 275.31 88.78 275.31 88.78 275.31 88.78 275.31 88.78 275.31 88.78 274.55 88.78 274.55 88.78 274.55 89.55 273.79 89.55 273.79 90.31 273.79 90.31 273.79 90.31 273.79 91.08 273.79 91.08 273.79 91.84 274.55 91.84 274.55 91.84 275.31 92.61 275.31 92.61 275.31 92.61 275.31 92.61 275.31 93.37 276.08 93.37 276.08 94.14 276.08 94.14 276.84 94.14 277.61 94.14 277.61 94.14 278.37 94.14 278.37 94.14 278.37 94.9 278.37 95.67 278.37 97.2 277.61 97.97 277.61 101.03 277.61 101.79 277.61 104.85 277.61 104.85 277.61 107.92 277.61 107.92 277.61 110.98 277.61 110.98 277.61 114.04 277.61 114.04 273.79 114.04 273.79 114.04 270.73 114.04 269.2 114.04 266.9 114.04 265.37 114.04 265.37 114.04 260.02 114.04 258.49 114.04 254.67 114.04 251.61 114.04 248.55 114.04 245.49 114.04 243.19 114.04 241.66 114.04 237.84 114.04 233.25 114.04 232.49 114.04 227.9 114.04 227.13 114.04 222.55 114.04 219.49 114.04 218.72 114.04 214.13 114.04 209.54 114.04 209.54 114.04 209.54 110.98 209.54 108.68 209.54 107.15 209.54 102.56 209.54 102.56 209.54 99.5 209.54 98.73 209.54 95.67 209.54 94.9 209.54 90.31 209.54 90.31 209.54 86.48 209.54 83.42 209.54 82.66 209.54 80.36 209.54 79.6 209.54 77.3 204.19 77.3 203.43 77.3 197.31 77.3 195.01 77.3 191.19 77.3 191.19 73.47 191.19 71.94 191.19 71.18 191.19 68.12 191.19 62.76 191.19 58.93"/><polygon class="cls-5" points="200.37 118.63 200.37 114.04 209.54 114.04 209.54 114.04 214.13 114.04 218.72 114.04 219.49 114.04 222.55 114.04 227.13 114.04 227.9 114.04 232.49 114.04 233.25 114.04 237.84 114.04 241.66 114.04 243.19 114.04 245.49 114.04 248.55 114.04 251.61 114.04 254.67 114.04 258.49 114.04 260.02 114.04 265.37 114.04 265.37 114.04 266.9 114.04 269.2 114.04 270.73 114.04 273.79 114.04 273.79 114.04 277.61 114.04 277.61 116.33 277.61 117.1 277.61 118.63 278.37 119.39 278.37 121.69 278.37 122.46 279.14 125.52 279.14 127.05 279.9 129.34 279.9 133.17 279.9 135.47 279.14 137 279.14 140.06 279.14 142.36 279.14 145.42 279.9 145.42 279.9 145.42 279.14 145.42 279.9 145.42 279.9 145.42 279.9 146.18 279.9 146.18 279.9 145.42 279.9 145.42 279.9 146.18 279.9 146.18 279.9 146.18 280.67 146.18 280.67 146.18 280.67 146.18 281.43 145.42 281.43 146.18 281.43 146.18 281.43 145.42 281.43 146.18 281.43 146.18 281.43 146.18 281.43 146.18 282.2 145.42 282.2 146.18 282.96 146.18 282.96 146.18 282.96 146.18 282.96 146.18 282.96 148.48 282.96 150.78 282.96 152.31 282.96 153.84 282.96 156.9 282.96 158.43 282.96 160.72 283.73 160.72 283.73 160.72 283.73 160.72 283.73 161.49 284.49 161.49 284.49 161.49 284.49 161.49 284.49 161.49 284.49 161.49 284.49 161.49 284.49 161.49 285.26 162.25 285.26 162.25 285.26 162.25 285.26 163.02 285.26 163.02 285.26 163.02 285.26 163.02 285.26 163.02 285.26 163.79 285.26 163.79 285.26 163.79 285.26 163.79 285.26 163.79 285.26 164.55 285.26 164.55 285.26 164.55 286.02 164.55 286.02 164.55 286.02 164.55 286.02 164.55 286.02 164.55 286.02 165.32 286.02 165.32 286.02 165.32 286.02 165.32 286.79 165.32 286.02 165.32 286.79 165.32 286.79 166.08 286.79 166.08 286.79 166.08 286.79 166.08 286.79 166.08 286.79 166.08 286.79 166.85 286.79 166.85 286.79 166.85 286.79 166.85 286.79 166.85 287.55 166.85 287.55 166.85 287.55 167.61 287.55 167.61 287.55 167.61 287.55 168.38 287.55 168.38 287.55 167.61 288.32 167.61 288.32 168.38 287.55 168.38 288.32 168.38 287.55 168.38 287.55 168.38 288.32 168.38 288.32 168.38 287.55 168.38 287.55 169.14 287.55 169.14 287.55 169.14 288.32 169.14 288.32 169.14 288.32 169.14 287.55 169.91 287.55 169.91 287.55 169.91 287.55 169.91 287.55 169.91 287.55 169.91 287.55 169.91 287.55 169.91 288.32 169.91 288.32 170.67 288.32 170.67 287.55 170.67 287.55 170.67 287.55 170.67 287.55 170.67 287.55 170.67 287.55 170.67 287.55 171.44 287.55 171.44 287.55 171.44 287.55 171.44 287.55 171.44 287.55 172.21 287.55 172.21 287.55 172.21 287.55 172.21 287.55 172.97 286.79 172.97 286.79 172.97 286.79 172.97 286.79 172.97 286.79 172.97 286.79 173.74 286.79 173.74 286.02 173.74 286.02 173.74 286.02 173.74 286.02 173.74 286.02 174.5 286.02 174.5 286.02 174.5 286.79 174.5 286.02 174.5 286.79 174.5 286.02 175.27 286.02 175.27 286.02 175.27 286.02 175.27 286.02 176.03 286.02 176.03 286.02 176.03 286.79 176.03 286.02 176.8 286.02 176.8 286.02 177.56 286.79 177.56 286.79 177.56 286.79 177.56 286.79 177.56 286.79 177.56 286.79 177.56 286.02 177.56 286.02 178.33 286.02 178.33 286.02 179.09 285.26 179.09 285.26 179.09 283.73 180.62 285.26 182.15 282.96 182.15 280.67 182.92 279.9 182.92 277.61 184.45 276.84 184.45 276.08 184.45 277.61 183.69 278.37 182.92 279.14 183.69 279.14 182.92 279.14 182.92 278.37 182.92 278.37 182.92 276.08 182.92 276.84 182.15 276.84 181.39 276.84 180.62 276.08 181.39 275.31 182.15 275.31 182.15 273.79 180.62 273.79 181.39 274.55 182.15 274.55 182.92 275.31 183.69 274.55 183.69 275.31 183.69 274.55 184.45 275.31 184.45 275.31 183.69 275.31 184.45 276.08 184.45 275.31 184.45 275.31 185.22 274.55 185.22 273.79 186.75 273.02 185.98 273.02 186.75 272.26 187.51 272.26 188.28 269.2 189.81 268.43 190.57 268.43 190.57 266.9 190.57 266.14 191.34 265.37 191.34 267.67 190.57 263.08 192.87 265.37 192.1 265.37 191.34 263.08 192.1 263.08 192.1 263.84 192.1 263.08 191.34 263.84 190.57 263.08 191.34 262.31 191.34 262.31 190.57 262.31 191.34 261.55 191.34 261.55 191.34 261.55 190.57 261.55 190.57 260.78 190.57 261.55 191.34 261.55 190.57 261.55 191.34 261.55 192.1 260.78 192.1 260.78 192.1 260.78 191.34 260.78 192.1 260.78 192.1 260.78 191.34 260.02 191.34 260.02 191.34 260.02 189.81 260.02 191.34 260.02 190.57 259.25 190.57 259.25 191.34 259.25 191.34 259.25 192.1 260.02 192.1 260.78 192.87 260.02 192.87 260.78 192.87 260.78 192.87 261.55 193.63 259.25 194.4 258.49 194.4 258.49 193.63 258.49 193.63 257.73 192.87 257.73 193.63 257.73 193.63 258.49 193.63 257.73 193.63 256.96 193.63 257.73 194.4 257.73 194.4 257.73 195.16 257.73 195.16 257.73 195.16 256.2 196.7 256.96 195.16 256.2 195.16 256.2 195.93 256.2 196.7 255.43 195.93 255.43 195.93 254.67 195.93 254.67 195.93 254.67 195.93 254.67 196.7 253.9 196.7 253.9 196.7 253.14 197.46 253.9 196.7 254.67 196.7 255.43 196.7 255.43 197.46 254.67 198.23 253.9 198.99 253.9 198.99 253.9 198.99 253.14 198.23 252.37 198.99 253.14 198.23 251.61 198.99 251.61 198.23 250.84 198.99 251.61 198.99 251.61 198.99 252.37 198.99 252.37 199.76 253.14 199.76 252.37 199.76 253.14 200.52 252.37 200.52 252.37 200.52 252.37 200.52 253.14 199.76 253.9 200.52 253.14 201.29 252.37 203.58 251.61 203.58 251.61 202.82 250.84 203.58 250.08 203.58 249.31 202.82 249.31 203.58 248.55 204.35 250.84 204.35 252.37 204.35 251.61 205.88 251.61 206.65 250.84 206.65 250.84 208.18 251.61 208.18 251.61 210.47 252.37 211.24 251.61 211.24 252.37 212 252.37 212.77 252.37 214.3 253.9 215.06 253.14 215.83 253.9 215.83 254.67 216.59 253.14 215.83 253.14 216.59 252.37 216.59 252.37 217.36 251.61 217.36 250.84 216.59 250.84 216.59 250.08 216.59 250.08 215.83 247.78 215.06 246.25 215.06 246.25 215.83 246.25 215.06 244.72 215.06 243.96 215.06 243.96 215.06 243.96 214.3 243.96 215.06 243.19 214.3 243.19 214.3 242.43 213.53 242.43 214.3 240.9 213.53 240.14 213.53 239.37 212.77 238.61 212.77 237.84 212 236.31 212 236.31 211.24 236.31 210.47 236.31 210.47 234.78 208.18 234.02 207.41 234.02 206.65 233.25 206.65 233.25 205.12 233.25 204.35 232.49 203.58 233.25 202.05 232.49 202.05 232.49 201.29 230.96 200.52 230.19 199.76 229.43 198.99 228.66 197.46 228.66 197.46 227.13 195.93 226.37 195.16 226.37 195.16 225.6 195.16 225.6 194.4 224.84 193.63 224.84 192.87 224.84 192.87 224.08 192.1 224.84 192.1 223.31 191.34 222.55 189.04 222.55 189.04 221.78 187.51 221.02 186.75 221.02 185.98 218.72 184.45 218.72 183.69 216.43 183.69 216.43 182.15 216.43 182.92 216.43 182.15 215.66 182.15 214.9 181.39 215.66 181.39 214.9 181.39 214.9 180.62 214.13 181.39 214.13 180.62 213.37 181.39 213.37 181.39 211.84 180.62 211.84 180.62 211.84 180.62 210.31 180.62 210.31 180.62 209.54 180.62 206.49 179.86 206.49 180.62 206.49 181.39 204.96 180.62 204.96 181.39 204.19 180.62 204.19 181.39 203.43 181.39 202.66 182.92 201.9 184.45 201.9 185.22 201.13 185.98 201.9 185.98 200.37 186.75 198.84 188.28 198.07 188.28 198.07 188.28 197.31 187.51 197.31 187.51 196.54 187.51 195.78 186.75 194.25 186.75 193.49 185.98 193.49 185.98 193.49 185.22 193.49 185.98 191.19 185.22 189.66 184.45 189.66 183.69 188.13 182.92 186.6 182.15 185.84 180.62 185.07 179.86 185.07 178.33 185.07 177.56 185.07 176.8 183.54 176.03 183.54 175.27 183.54 175.27 182.78 173.74 182.01 172.97 182.01 172.97 181.25 172.21 180.48 171.44 179.72 171.44 179.72 171.44 178.96 171.44 178.19 171.44 178.19 170.67 176.66 169.91 176.66 169.14 175.13 168.38 172.84 166.08 171.31 165.32 169.01 163.02 168.25 162.25 167.48 162.25 167.48 162.25 166.72 161.49 166.72 161.49 166.72 160.72 166.72 160.72 167.48 160.72 169.78 160.72 172.84 160.72 182.78 160.72 183.54 160.72 191.19 160.72 191.19 160.72 193.49 160.72 197.31 160.72 200.37 160.72 200.37 159.96 200.37 155.37 200.37 151.54 200.37 147.71 200.37 146.18 200.37 143.89 200.37 139.29 200.37 135.47 200.37 133.17 200.37 130.88 200.37 127.05 200.37 125.52 200.37 123.22 200.37 118.63 200.37 118.63"/><polygon class="cls-5" points="261.55 194.4 257.73 196.7 257.73 195.93 258.49 195.93 260.02 194.4 260.78 194.4 261.55 193.63 261.55 194.4"/><polygon class="cls-5" points="253.9 201.29 253.9 200.52 253.9 201.29 254.67 199.76 255.43 198.99 254.67 198.99 255.43 198.99 253.9 201.29 252.37 204.35 252.37 204.35 252.37 204.35 253.14 202.82 253.9 201.29"/><polygon class="cls-5" points="253.14 210.47 252.37 209.71 252.37 208.18 252.37 207.41 252.37 205.88 252.37 205.12 252.37 205.12 252.37 205.88 252.37 207.41 252.37 208.18 253.14 210.47 253.9 212 253.9 213.53 254.67 215.06 254.67 215.06 253.9 213.53 253.9 212.77 253.9 212 253.14 211.24 253.14 211.24 253.14 210.47"/><polygon class="cls-5" points="256.2 196.7 256.96 195.93 257.73 196.7 256.96 196.7 255.43 198.99 255.43 198.23 256.2 197.46 256.2 197.46 256.2 196.7"/><polygon class="cls-5" points="275.31 185.98 276.84 185.22 276.84 185.22 273.79 187.51 275.31 185.98"/><polygon class="cls-6" points="408.38 72.71 408.38 72.71 408.38 75.77 408.38 78.07 408.38 78.83 408.38 80.36 407.62 81.13 406.85 81.13 406.85 81.13 406.85 81.13 406.85 81.13 406.85 81.89 406.85 81.89 407.62 81.89 406.85 82.66 406.85 82.66 407.62 83.42 407.62 83.42 406.85 84.19 406.85 84.19 406.85 84.95 406.09 84.95 406.09 84.95 406.09 86.48 406.09 86.48 406.09 87.25 406.09 87.25 406.09 87.25 405.32 87.25 405.32 87.25 405.32 87.25 405.32 88.02 405.32 88.02 405.32 88.02 405.32 88.02 404.56 88.78 405.32 88.78 405.32 89.55 405.32 89.55 404.56 89.55 404.56 89.55 404.56 90.31 404.56 90.31 404.56 90.31 403.8 90.31 403.03 91.08 403.03 91.08 403.03 91.08 402.27 91.84 402.27 91.84 401.5 91.84 401.5 91.84 401.5 91.84 400.74 92.61 400.74 92.61 399.97 92.61 399.97 91.84 399.21 91.84 399.21 91.84 398.44 92.61 398.44 92.61 398.44 93.37 397.68 93.37 396.91 93.37 396.91 94.14 396.91 94.14 396.91 94.14 396.91 94.9 396.91 94.9 396.15 94.9 396.15 94.9 396.15 94.9 396.15 95.67 396.15 95.67 396.15 96.44 396.91 96.44 396.15 96.44 396.15 96.44 396.15 96.44 395.38 97.2 395.38 97.2 395.38 97.2 395.38 96.44 395.38 96.44 395.38 95.67 394.62 95.67 394.62 95.67 394.62 95.67 393.85 95.67 393.85 95.67 393.85 95.67 393.85 96.44 393.09 96.44 393.09 97.2 392.32 97.97 392.32 97.97 393.09 98.73 392.32 98.73 393.09 99.5 392.32 99.5 392.32 99.5 391.56 99.5 391.56 99.5 391.56 101.03 391.56 101.03 390.79 101.03 390.79 101.03 390.03 101.03 389.26 101.03 389.26 101.03 389.26 101.03 388.5 101.03 388.5 100.26 387.74 100.26 387.74 100.26 386.97 100.26 386.97 99.5 386.21 99.5 386.21 98.73 386.21 98.73 386.21 98.73 386.21 97.97 386.21 97.97 385.44 98.73 384.68 98.73 384.68 98.73 383.91 98.73 383.91 99.5 383.15 99.5 383.15 99.5 382.38 99.5 382.38 99.5 382.38 99.5 382.38 99.5 382.38 99.5 381.62 98.73 380.85 98.73 380.85 98.73 380.09 98.73 379.32 98.73 379.32 98.73 379.32 99.5 379.32 99.5 378.56 99.5 378.56 99.5 377.79 98.73 377.79 98.73 377.79 98.73 377.03 97.97 377.03 97.97 376.26 97.97 375.5 97.97 375.5 97.97 373.97 97.97 373.97 97.2 373.97 97.2 373.2 96.44 373.2 96.44 373.2 95.67 372.44 95.67 372.44 95.67 372.44 95.67 371.68 94.9 371.68 94.9 371.68 94.9 370.91 94.9 370.15 94.9 370.15 94.9 370.15 94.9 369.38 94.14 368.62 94.9 368.62 94.9 368.62 94.9 367.85 94.9 367.85 95.67 367.85 95.67 367.85 95.67 368.62 95.67 367.85 96.44 367.85 96.44 367.85 96.44 367.85 96.44 368.62 96.44 368.62 97.2 368.62 97.2 368.62 97.2 368.62 97.97 367.09 97.97 366.32 97.97 366.32 97.97 365.56 98.73 365.56 98.73 364.79 98.73 364.03 97.97 363.26 97.97 362.5 97.97 362.5 97.97 362.5 98.73 362.5 99.5 362.5 99.5 362.5 100.26 362.5 100.26 361.73 101.03 360.97 101.03 360.97 101.79 360.97 101.79 360.2 102.56 360.2 102.56 359.44 102.56 359.44 102.56 358.67 102.56 358.67 102.56 358.67 103.32 357.91 104.09 357.91 104.85 357.91 104.85 357.14 104.85 357.14 104.85 357.14 105.62 356.38 104.85 355.62 104.85 354.85 104.85 354.85 104.85 354.85 104.09 354.85 103.32 354.09 103.32 354.09 103.32 354.09 103.32 354.09 103.32 354.09 103.32 354.09 104.09 354.09 104.09 354.09 104.09 354.09 104.09 353.32 104.09 353.32 104.09 353.32 104.09 353.32 104.09 353.32 104.09 353.32 104.85 352.56 104.85 352.56 104.85 352.56 104.85 352.56 104.85 352.56 105.62 352.56 105.62 352.56 105.62 351.79 105.62 351.79 105.62 351.79 106.38 351.79 106.38 351.03 106.38 351.03 106.38 351.03 105.62 351.03 105.62 351.03 105.62 351.03 106.38 350.26 105.62 350.26 105.62 349.5 104.85 349.5 104.85 349.5 105.62 348.73 105.62 348.73 105.62 347.97 105.62 347.97 105.62 347.97 107.15 347.2 107.15 347.2 107.15 346.44 106.38 346.44 106.38 346.44 106.38 345.67 106.38 345.67 106.38 344.91 105.62 344.14 105.62 343.38 105.62 342.61 105.62 342.61 105.62 342.61 106.38 342.61 106.38 342.61 106.38 342.61 106.38 341.85 106.38 341.85 105.62 341.85 105.62 341.85 106.38 341.08 105.62 340.32 106.38 340.32 106.38 340.32 105.62 339.56 105.62 339.56 105.62 339.56 106.38 339.56 106.38 339.56 107.15 339.56 107.15 339.56 107.15 338.79 107.15 338.79 107.15 338.03 107.15 338.03 107.92 337.26 107.92 337.26 108.68 338.03 108.68 338.03 109.45 338.03 110.21 336.5 110.21 335.73 110.21 334.97 110.21 334.97 110.21 334.2 111.74 334.2 111.74 334.97 112.51 334.97 112.51 334.97 113.27 334.97 113.27 334.2 113.27 334.2 114.04 334.2 113.27 333.44 113.27 332.67 113.27 331.91 113.27 331.91 112.51 331.14 112.51 330.38 112.51 329.61 112.51 328.85 112.51 328.85 113.27 328.08 113.27 328.08 114.04 328.08 114.04 328.08 114.04 328.85 114.04 328.85 114.8 328.85 114.8 328.85 115.57 328.08 115.57 328.08 115.57 328.08 116.33 328.85 116.33 328.85 116.33 328.08 116.33 328.08 116.33 328.08 117.1 328.08 117.1 328.08 117.1 328.08 117.86 328.08 117.86 328.08 117.86 327.32 118.63 327.32 117.86 326.55 117.86 326.55 117.86 326.55 117.86 326.55 117.86 325.79 118.63 325.79 118.63 325.79 119.39 325.79 119.39 325.02 119.39 325.02 118.63 325.02 118.63 325.79 118.63 325.02 118.63 325.02 118.63 325.02 118.63 325.02 118.63 324.26 118.63 324.26 118.63 325.02 118.63 325.02 119.39 325.02 119.39 325.02 120.16 325.02 120.16 325.02 120.16 324.26 120.16 324.26 120.16 324.26 120.93 325.02 120.93 325.02 120.93 325.02 120.93 324.26 120.93 323.5 120.93 323.5 120.93 323.5 120.93 323.5 121.69 324.26 121.69 324.26 122.46 324.26 122.46 323.5 122.46 323.5 122.46 323.5 123.22 323.5 123.22 321.2 123.22 318.14 123.22 317.38 123.99 317.38 122.46 318.14 122.46 318.14 122.46 318.14 122.46 318.14 121.69 318.91 121.69 318.91 121.69 319.67 121.69 319.67 120.93 319.67 120.93 320.44 120.93 319.67 120.16 320.44 120.16 320.44 120.16 319.67 120.16 319.67 119.39 319.67 119.39 319.67 119.39 319.67 119.39 318.91 118.63 318.14 118.63 315.08 118.63 312.79 118.63 309.73 118.63 307.44 118.63 307.44 118.63 305.14 118.63 300.55 118.63 300.55 118.63 297.49 118.63 295.2 118.63 294.43 118.63 289.85 118.63 289.85 118.63 287.55 118.63 285.26 118.63 282.96 118.63 277.61 118.63 277.61 117.1 277.61 116.33 277.61 114.04 277.61 114.04 277.61 110.98 277.61 110.98 277.61 107.92 277.61 107.92 277.61 104.85 277.61 104.85 277.61 101.79 277.61 101.03 277.61 97.97 278.37 97.2 278.37 95.67 278.37 94.9 278.37 94.14 278.37 94.14 277.61 94.14 277.61 94.14 276.84 94.14 276.08 94.14 276.08 94.14 276.08 93.37 275.31 93.37 275.31 92.61 275.31 92.61 275.31 92.61 275.31 92.61 274.55 91.84 274.55 91.84 273.79 91.84 273.79 91.08 273.79 91.08 273.79 90.31 273.79 90.31 273.79 90.31 273.79 89.55 274.55 89.55 274.55 88.78 274.55 88.78 275.31 88.78 275.31 88.78 275.31 88.78 275.31 88.78 275.31 88.78 275.31 88.78 275.31 88.78 275.31 88.78 275.31 88.78 275.31 88.02 275.31 88.02 275.31 88.02 275.31 88.02 275.31 87.25 274.55 87.25 274.55 87.25 273.79 88.02 273.79 88.02 273.79 88.02 273.02 87.25 272.26 87.25 272.26 87.25 272.26 87.25 271.49 86.48 271.49 86.48 270.73 86.48 270.73 86.48 270.73 86.48 270.73 85.72 270.73 85.72 270.73 85.72 270.73 85.72 269.96 84.95 269.96 84.95 269.96 84.19 269.2 84.19 269.2 83.42 268.43 83.42 268.43 83.42 268.43 83.42 268.43 83.42 268.43 83.42 268.43 82.66 267.67 81.89 268.43 81.89 268.43 81.89 268.43 81.13 268.43 81.13 268.43 81.13 267.67 81.89 267.67 81.89 267.67 81.13 267.67 81.13 267.67 81.13 267.67 80.36 266.14 79.6 266.9 79.6 266.9 78.83 266.9 78.83 266.9 78.07 266.9 77.3 266.14 77.3 266.14 77.3 266.14 76.53 266.14 76.53 266.14 75.77 266.14 75.77 266.14 75.77 266.14 75.77 266.14 75.77 266.14 75 266.14 74.24 266.14 74.24 266.14 75 266.14 74.24 265.37 74.24 265.37 73.47 266.14 72.71 265.37 72.71 265.37 72.71 265.37 72.71 265.37 72.71 265.37 72.71 265.37 72.71 264.61 72.71 264.61 72.71 264.61 71.94 264.61 71.94 263.84 71.94 264.61 71.18 263.84 71.18 263.84 71.18 264.61 71.18 264.61 70.41 264.61 70.41 264.61 69.65 263.84 69.65 263.84 68.88 263.84 68.88 263.84 68.12 263.84 68.12 263.08 68.12 263.08 68.12 263.08 68.12 263.08 67.35 262.31 66.59 262.31 66.59 261.55 65.82 262.31 65.82 262.31 65.82 262.31 65.82 261.55 65.06 261.55 65.06 261.55 65.06 261.55 64.29 261.55 64.29 261.55 64.29 261.55 63.52 260.78 63.52 260.78 63.52 260.78 62.76 260.78 62.76 260.78 62.76 260.78 61.99 260.02 61.99 260.02 61.99 259.25 61.23 259.25 61.23 259.25 61.23 260.02 60.46 260.02 60.46 260.02 60.46 260.02 60.46 260.02 59.7 260.02 59.7 260.78 58.93 260.78 58.93 260.78 58.93 260.02 58.17 260.78 58.17 260.78 58.17 260.78 58.17 260.78 57.4 260.78 56.64 260.78 56.64 260.02 56.64 260.02 56.64 260.02 56.64 260.02 56.64 260.02 55.87 260.02 55.87 260.02 55.87 260.02 55.11 260.02 55.11 260.02 55.11 260.02 54.34 260.02 54.34 260.78 54.34 264.61 54.34 266.14 54.34 269.96 54.34 270.73 54.34 275.31 54.34 276.08 54.34 279.14 54.34 281.43 54.34 283.73 54.34 286.79 54.34 288.32 54.34 292.14 54.34 292.9 54.34 296.73 54.34 298.26 54.34 301.32 54.34 304.38 54.34 305.91 54.34 308.96 54.34 308.96 54.34 309.73 55.11 309.73 55.11 309.73 55.87 310.49 55.87 310.49 56.64 310.49 56.64 309.73 57.4 309.73 58.17 309.73 58.17 309.73 58.93 309.73 59.7 310.49 59.7 310.49 61.23 310.49 61.23 311.26 61.23 312.02 61.99 312.02 61.99 313.55 61.99 314.32 61.99 314.32 62.76 314.32 62.76 315.08 63.52 314.32 63.52 316.61 63.52 321.2 63.52 321.97 63.52 325.79 63.52 326.55 63.52 330.38 63.52 331.91 63.52 332.67 63.52 336.5 63.52 337.26 63.52 341.08 63.52 340.32 65.06 341.08 66.59 341.85 67.35 342.61 69.65 343.38 70.41 344.14 71.18 344.14 71.18 344.14 71.18 344.91 71.18 346.44 71.18 348.73 70.41 349.5 70.41 352.56 70.41 355.62 70.41 357.14 70.41 359.44 70.41 360.97 70.41 364.03 70.41 364.79 70.41 368.62 70.41 368.62 70.41 368.62 71.18 372.44 71.18 372.44 70.41 377.03 70.41 377.79 70.41 380.85 70.41 383.91 71.18 385.44 72.71 386.97 72.71 386.97 72.71 384.68 73.47 386.21 73.47 387.74 73.47 389.26 73.47 391.56 73.47 394.62 72.71 394.62 72.71 396.91 72.71 399.21 71.18 399.97 70.41 403.8 69.65 408.38 68.12 408.38 69.65 408.38 72.71"/><polygon class="cls-7" points="316.61 26.02 320.44 25.26 321.97 23.73 322.73 23.73 326.55 22.96 328.08 22.96 328.85 22.2 329.61 22.2 330.38 21.43 331.14 20.66 333.44 19.9 333.44 20.66 334.2 20.66 334.2 21.43 334.97 22.2 334.97 22.2 334.97 22.96 334.97 23.73 337.26 22.2 337.26 22.96 338.79 22.96 340.32 22.96 341.85 23.73 344.91 26.79 347.2 26.79 347.97 26.02 349.5 26.79 350.26 26.79 351.79 27.55 353.32 26.02 356.38 25.26 356.38 25.26 358.67 24.49 361.73 25.26 364.79 24.49 367.09 23.73 366.32 24.49 366.32 26.02 366.32 26.79 366.32 26.79 367.09 26.79 368.62 26.79 370.15 26.79 370.91 27.55 372.44 26.79 373.2 26.79 373.97 29.08 373.2 29.08 373.97 29.85 374.73 29.85 375.5 29.85 375.5 30.61 376.26 30.61 377.03 31.38 377.03 31.38 374.73 31.38 372.44 31.38 371.68 31.38 370.15 30.61 369.38 30.61 369.38 32.15 367.85 32.15 366.32 30.61 363.26 29.85 361.73 29.85 360.97 31.38 358.67 31.38 357.91 31.38 357.91 32.15 357.14 31.38 354.85 31.38 354.85 32.15 354.09 32.91 353.32 33.68 352.56 33.68 352.56 33.68 351.79 33.68 351.79 34.44 351.03 34.44 351.03 33.68 351.79 32.91 350.26 32.91 349.5 33.68 347.2 33.68 345.67 35.21 344.91 36.74 342.61 39.03 342.61 39.03 341.85 39.03 341.85 39.03 342.61 39.8 342.61 39.8 342.61 40.56 341.08 40.56 340.32 41.33 340.32 41.33 338.79 42.86 339.56 43.63 338.79 43.63 339.56 44.39 338.79 43.63 338.79 44.39 339.56 44.39 339.56 44.39 340.32 43.63 341.08 43.63 341.85 43.63 342.61 42.09 343.38 42.09 343.38 42.09 344.14 41.33 344.91 42.09 345.67 42.09 344.91 43.63 344.14 44.39 343.38 46.69 343.38 48.22 342.61 48.98 341.85 50.51 341.85 52.81 341.08 53.58 341.08 54.34 340.32 55.87 340.32 57.4 340.32 58.17 340.32 58.93 340.32 58.93 340.32 60.46 341.08 61.23 341.08 61.99 341.08 63.52 337.26 63.52 336.5 63.52 332.67 63.52 331.91 63.52 330.38 63.52 326.55 63.52 325.79 63.52 321.97 63.52 321.2 63.52 316.61 63.52 314.32 63.52 315.08 63.52 314.32 62.76 314.32 62.76 314.32 61.99 313.55 61.99 312.02 61.99 312.02 61.99 311.26 61.23 310.49 61.23 310.49 61.23 310.49 59.7 309.73 59.7 309.73 58.93 309.73 58.17 309.73 58.17 309.73 57.4 310.49 56.64 310.49 56.64 310.49 55.87 309.73 55.87 309.73 55.11 309.73 55.11 308.96 54.34 308.96 54.34 305.91 54.34 304.38 54.34 301.32 54.34 298.26 54.34 296.73 54.34 292.9 54.34 292.14 54.34 288.32 54.34 286.79 54.34 283.73 54.34 281.43 54.34 279.14 54.34 276.08 54.34 275.31 54.34 270.73 54.34 269.96 54.34 266.14 54.34 264.61 54.34 260.78 54.34 260.78 51.28 260.78 47.45 260.78 44.39 260.78 43.63 260.78 42.09 260.78 40.56 260.78 37.5 260.78 37.5 260.78 37.5 260.02 36.74 259.25 36.74 258.49 36.74 258.49 35.97 257.73 35.97 257.73 35.21 256.96 34.44 257.73 34.44 259.25 33.68 259.25 32.91 260.02 32.91 260.02 31.38 260.02 31.38 260.02 30.61 260.02 30.61 260.02 29.85 260.02 29.08 260.02 29.08 260.02 29.08 259.25 28.32 259.25 27.55 259.25 27.55 258.49 27.55 258.49 27.55 258.49 26.79 258.49 26.79 258.49 26.02 257.73 25.26 257.73 25.26 257.73 25.26 257.73 25.26 257.73 24.49 257.73 23.73 257.73 23.73 257.73 22.96 257.73 22.96 258.49 22.96 258.49 22.2 257.73 22.2 257.73 22.2 257.73 22.2 257.73 22.2 257.73 22.2 257.73 22.2 257.73 22.2 257.73 21.43 257.73 21.43 257.73 21.43 257.73 20.66 257.73 20.66 257.73 19.9 257.73 19.9 257.73 19.13 257.73 19.13 257.73 18.37 256.96 18.37 257.73 18.37 257.73 18.37 256.96 18.37 256.96 17.6 256.96 17.6 256.96 17.6 256.96 16.84 257.73 16.84 256.96 16.84 256.96 16.07 256.96 16.07 256.96 15.31 256.96 15.31 256.96 14.54 256.2 14.54 256.2 14.54 256.2 14.54 256.2 13.78 255.43 13.78 256.2 13.78 255.43 13.01 255.43 12.25 255.43 12.25 254.67 11.48 254.67 11.48 254.67 11.48 254.67 11.48 254.67 11.48 254.67 11.48 254.67 10.71 254.67 10.71 254.67 10.71 254.67 10.71 254.67 10.71 254.67 10.71 254.67 10.71 254.67 9.95 254.67 9.95 254.67 9.95 254.67 9.95 254.67 9.95 254.67 9.95 254.67 9.95 254.67 9.95 254.67 9.95 254.67 9.95 254.67 9.18 254.67 9.18 254.67 9.18 254.67 9.18 254.67 9.18 254.67 9.18 254.67 9.18 254.67 8.42 254.67 9.18 254.67 8.42 254.67 8.42 254.67 7.65 254.67 7.65 254.67 7.65 254.67 7.65 254.67 7.65 254.67 7.65 254.67 7.65 254.67 7.65 254.67 7.65 254.67 6.89 254.67 6.89 254.67 6.89 254.67 6.89 254.67 6.89 255.43 6.12 254.67 6.12 254.67 6.12 254.67 6.12 254.67 6.12 254.67 5.36 254.67 5.36 254.67 5.36 254.67 5.36 254.67 5.36 254.67 5.36 254.67 4.59 254.67 4.59 253.9 3.83 253.9 3.06 261.55 3.06 271.49 3.06 273.02 3.06 273.02 0 276.08 0 277.61 4.59 277.61 5.36 278.37 6.12 279.9 6.12 280.67 6.12 281.43 6.89 285.26 6.89 285.26 7.65 286.02 7.65 288.32 7.65 288.32 7.65 288.32 6.89 289.85 6.89 292.14 6.89 293.67 6.89 295.2 7.65 295.96 7.65 295.96 7.65 295.96 8.42 295.96 8.42 297.49 8.42 298.26 9.18 297.49 9.18 299.02 10.71 299.79 10.71 299.02 9.95 299.79 9.18 301.32 9.18 302.08 9.18 302.08 10.71 304.38 10.71 305.14 10.71 305.14 11.48 305.91 11.48 305.91 12.25 308.96 12.25 311.26 10.71 312.79 9.95 313.55 11.48 315.08 11.48 315.08 11.48 318.91 11.48 320.44 12.25 320.44 12.25 321.2 13.01 322.73 12.25 325.02 13.01 324.26 13.01 324.26 13.01 320.44 14.54 315.85 15.31 311.26 17.6 306.67 20.66 303.61 22.96 301.32 23.73 299.79 25.26 299.02 25.26 299.79 25.26 300.55 25.26 301.32 24.49 302.08 24.49 302.85 24.49 305.91 24.49 312.79 22.2 313.55 22.96 313.55 22.96 312.02 26.02 313.55 25.26 315.85 26.02 316.61 26.02"/><polygon class="cls-7" points="390.03 57.4 390.79 58.93 390.03 59.7 390.03 61.23 389.26 61.99 388.5 61.99 388.5 61.99 387.74 61.99 386.97 61.99 386.97 62.76 386.21 63.52 386.21 63.52 386.21 65.06 383.91 65.06 383.15 67.35 383.15 68.12 380.85 70.41 377.79 70.41 377.03 70.41 372.44 70.41 372.44 71.18 368.62 71.18 368.62 70.41 368.62 70.41 364.79 70.41 364.03 70.41 360.97 70.41 359.44 70.41 357.14 70.41 355.62 70.41 352.56 70.41 349.5 70.41 351.79 68.88 352.56 66.59 354.09 65.82 354.85 64.29 355.62 61.23 354.85 57.4 353.32 54.34 352.56 52.81 353.32 52.04 354.09 52.04 353.32 51.28 353.32 51.28 353.32 49.75 353.32 49.75 352.56 48.98 354.09 48.22 354.85 46.69 355.62 45.16 354.85 42.86 356.38 42.86 356.38 42.09 356.38 42.09 357.14 41.33 359.44 40.56 360.97 38.27 361.73 39.03 360.97 40.56 360.97 42.09 361.73 42.86 362.5 41.33 363.26 40.56 363.26 38.27 363.26 37.5 364.03 37.5 365.56 36.74 367.09 36.74 367.09 36.74 366.32 35.97 365.56 35.21 366.32 34.44 367.09 34.44 367.09 33.68 369.38 32.91 371.68 34.44 373.2 34.44 373.97 34.44 374.73 35.21 374.73 35.97 377.03 35.97 377.79 36.74 378.56 36.74 380.09 37.5 380.85 36.74 380.85 37.5 381.62 37.5 381.62 38.27 381.62 38.27 382.38 39.8 380.85 39.8 380.85 40.56 380.85 40.56 380.85 41.33 382.38 41.33 382.38 42.86 382.38 45.16 381.62 46.69 380.09 47.45 380.09 48.22 379.32 48.98 378.56 49.75 377.03 49.75 377.03 50.51 376.26 52.04 378.56 53.58 379.32 53.58 380.09 52.04 380.85 52.04 380.85 52.04 381.62 51.28 382.38 50.51 385.44 48.98 386.97 48.98 387.74 49.75 388.5 51.28 388.5 52.81 390.03 57.4"/><polygon class="cls-7" points="334.2 19.13 334.97 18.37 337.26 17.6 341.08 17.6 341.85 18.37 341.08 18.37 339.56 18.37 337.26 19.9 334.97 22.2 334.97 20.66 333.44 20.66 333.44 19.9 334.2 19.13"/><polygon class="cls-7" points="347.97 37.5 348.73 37.5 348.73 38.27 347.97 38.27 347.97 38.27 347.97 39.03 347.2 39.03 347.97 39.8 347.2 39.8 347.2 39.8 347.2 39.8 346.44 40.56 346.44 41.33 346.44 41.33 345.67 42.09 344.91 42.09 344.14 41.33 344.91 40.56 345.67 39.8 346.44 39.03 346.44 39.03 347.97 37.5 347.97 37.5"/><polygon class="cls-7" points="334.2 10.71 333.44 12.25 330.38 13.01 329.61 13.78 328.85 14.54 328.08 13.78 328.08 13.78 328.08 13.01 334.2 10.71"/><polygon class="cls-7" points="377.03 31.38 377.79 31.38 378.56 30.61 379.32 30.61 378.56 30.61 378.56 30.61 379.32 29.85 380.09 30.61 380.09 31.38 380.85 31.38 380.09 32.15 380.09 32.15 379.32 31.38 377.79 31.38 377.03 31.38 377.03 31.38 377.03 31.38"/><polygon class="cls-8" points="325.02 118.63 324.26 118.63 324.26 118.63 325.02 118.63 325.02 118.63 325.02 118.63 325.02 118.63 325.79 118.63 325.02 118.63 325.02 118.63 325.02 119.39 325.79 119.39 325.79 119.39 325.79 118.63 325.79 118.63 326.55 117.86 326.55 117.86 326.55 117.86 326.55 117.86 327.32 117.86 327.32 118.63 328.08 117.86 328.08 117.86 328.08 117.86 328.08 117.1 328.08 117.1 328.08 117.1 328.08 116.33 328.08 116.33 328.85 116.33 328.85 116.33 328.08 116.33 328.08 115.57 328.08 115.57 328.85 115.57 328.85 114.8 328.85 114.8 328.85 114.04 328.08 114.04 328.08 114.04 328.08 114.04 328.08 113.27 328.85 113.27 328.85 112.51 329.61 112.51 330.38 112.51 331.14 112.51 331.91 112.51 331.91 113.27 332.67 113.27 333.44 113.27 334.2 113.27 334.2 114.04 334.2 113.27 334.97 113.27 334.97 113.27 334.97 112.51 334.97 112.51 334.2 111.74 334.2 111.74 334.97 110.21 334.97 110.21 335.73 110.21 336.5 110.21 338.03 110.21 338.03 109.45 338.03 108.68 337.26 108.68 337.26 107.92 338.03 107.92 338.03 107.15 338.79 107.15 338.79 107.15 339.56 107.15 339.56 107.15 339.56 107.15 339.56 106.38 339.56 106.38 339.56 105.62 339.56 105.62 340.32 105.62 340.32 106.38 340.32 106.38 341.08 105.62 341.85 106.38 341.85 105.62 341.85 105.62 341.85 106.38 342.61 106.38 342.61 106.38 342.61 106.38 342.61 106.38 342.61 105.62 342.61 105.62 343.38 105.62 344.14 105.62 344.91 105.62 345.67 106.38 345.67 106.38 346.44 106.38 346.44 106.38 346.44 106.38 347.2 107.15 347.2 107.15 347.97 107.15 347.97 105.62 347.97 105.62 348.73 105.62 348.73 105.62 349.5 105.62 349.5 104.85 349.5 104.85 350.26 105.62 350.26 105.62 351.03 106.38 351.03 105.62 351.03 105.62 351.03 105.62 351.03 106.38 351.03 106.38 351.79 106.38 351.79 106.38 351.79 105.62 351.79 105.62 352.56 105.62 352.56 105.62 352.56 105.62 352.56 104.85 352.56 104.85 352.56 104.85 352.56 104.85 353.32 104.85 353.32 104.09 353.32 104.09 353.32 104.09 353.32 104.09 353.32 104.09 354.09 104.09 354.09 104.09 354.09 104.09 354.09 104.09 354.09 103.32 354.09 103.32 354.09 103.32 354.09 103.32 354.09 103.32 354.85 103.32 354.85 104.09 354.85 104.85 354.85 104.85 355.62 104.85 356.38 104.85 357.14 105.62 357.14 104.85 357.14 104.85 357.91 104.85 357.91 104.85 357.91 104.09 358.67 103.32 358.67 102.56 358.67 102.56 359.44 102.56 359.44 102.56 360.2 102.56 360.2 102.56 360.97 101.79 360.97 101.79 360.97 101.03 361.73 101.03 362.5 100.26 362.5 100.26 362.5 99.5 362.5 99.5 362.5 98.73 362.5 97.97 362.5 97.97 363.26 97.97 364.03 97.97 364.79 98.73 365.56 98.73 365.56 98.73 366.32 97.97 366.32 97.97 367.09 97.97 368.62 97.97 368.62 97.2 368.62 97.2 368.62 97.2 368.62 96.44 367.85 96.44 367.85 96.44 367.85 96.44 367.85 96.44 368.62 95.67 367.85 95.67 367.85 95.67 367.85 95.67 367.85 94.9 368.62 94.9 368.62 94.9 368.62 94.9 369.38 94.14 370.15 94.9 370.15 94.9 370.15 94.9 370.91 94.9 371.68 94.9 371.68 94.9 371.68 94.9 372.44 95.67 372.44 95.67 372.44 95.67 373.2 95.67 373.2 96.44 373.2 96.44 373.97 97.2 373.97 97.2 373.97 97.97 375.5 97.97 375.5 97.97 376.26 97.97 377.03 97.97 377.03 97.97 377.79 98.73 377.79 98.73 377.79 98.73 378.56 99.5 378.56 99.5 379.32 99.5 379.32 99.5 379.32 98.73 379.32 98.73 380.09 98.73 380.85 98.73 380.85 98.73 381.62 98.73 382.38 99.5 382.38 99.5 382.38 99.5 382.38 99.5 382.38 99.5 383.15 99.5 383.15 99.5 383.91 99.5 383.91 98.73 384.68 98.73 384.68 98.73 385.44 98.73 386.21 97.97 386.21 97.97 386.21 98.73 386.21 98.73 386.21 98.73 386.21 99.5 386.97 99.5 386.97 100.26 387.74 100.26 387.74 100.26 388.5 100.26 388.5 101.03 389.26 101.03 389.26 101.03 389.26 101.03 390.03 101.03 390.79 101.03 390.79 101.03 391.56 101.03 391.56 101.03 391.56 99.5 391.56 99.5 392.32 99.5 392.32 99.5 393.09 99.5 392.32 98.73 393.09 98.73 392.32 97.97 392.32 97.97 393.09 97.2 393.09 96.44 393.85 96.44 393.85 95.67 393.85 95.67 393.85 95.67 394.62 95.67 394.62 95.67 394.62 95.67 395.38 95.67 395.38 96.44 395.38 96.44 395.38 97.2 395.38 97.2 395.38 97.2 396.15 96.44 396.15 96.44 396.15 96.44 396.91 96.44 396.15 96.44 396.15 95.67 396.15 95.67 396.15 94.9 396.15 94.9 396.15 94.9 396.91 94.9 396.91 94.9 396.91 94.14 396.91 94.14 396.91 94.14 396.91 93.37 397.68 93.37 398.44 93.37 398.44 92.61 398.44 92.61 399.21 91.84 399.21 91.84 399.97 91.84 399.97 92.61 400.74 92.61 400.74 92.61 401.5 91.84 401.5 91.84 401.5 91.84 402.27 91.84 402.27 91.84 403.03 91.08 403.03 91.08 403.03 91.08 403.8 90.31 404.56 90.31 404.56 90.31 404.56 90.31 404.56 89.55 404.56 89.55 405.32 89.55 405.32 89.55 405.32 88.78 404.56 88.78 405.32 88.02 405.32 88.02 405.32 88.02 405.32 88.02 405.32 87.25 405.32 87.25 405.32 87.25 406.09 87.25 406.09 87.25 406.09 87.25 406.09 86.48 406.09 86.48 406.09 84.95 406.09 84.95 406.85 84.95 406.85 84.19 406.85 84.19 407.62 83.42 407.62 83.42 406.85 82.66 406.85 82.66 407.62 81.89 406.85 81.89 406.85 81.89 406.85 81.13 406.85 81.13 406.85 81.13 406.85 81.13 407.62 81.13 408.38 80.36 408.38 81.89 408.38 82.66 408.38 84.95 408.38 86.48 408.38 87.25 408.38 88.78 409.15 88.78 413.74 88.78 415.27 88.78 417.56 88.78 417.56 94.14 417.56 94.14 418.33 94.14 418.33 93.37 419.09 93.37 419.09 93.37 419.86 92.61 419.86 92.61 420.62 91.84 420.62 91.84 420.62 91.84 421.38 91.84 421.38 91.84 421.38 91.08 421.38 91.08 421.38 91.08 421.38 91.08 422.15 91.84 422.15 91.84 422.91 91.08 423.68 90.31 423.68 90.31 423.68 90.31 423.68 90.31 423.68 90.31 424.44 89.55 424.44 90.31 424.44 90.31 424.44 90.31 424.44 90.31 424.44 90.31 424.44 90.31 424.44 90.31 424.44 90.31 425.21 91.08 425.21 91.08 425.21 91.08 425.97 91.08 425.97 91.08 426.74 91.08 426.74 91.08 426.74 91.08 427.5 91.08 427.5 91.08 426.74 90.31 427.5 90.31 427.5 90.31 427.5 90.31 427.5 90.31 427.5 90.31 428.27 90.31 428.27 89.55 429.03 90.31 429.03 89.55 429.03 89.55 429.03 89.55 429.8 89.55 429.8 89.55 430.56 89.55 431.33 90.31 431.33 90.31 431.33 90.31 432.09 90.31 432.09 90.31 432.09 90.31 432.09 90.31 432.09 90.31 432.09 90.31 432.09 90.31 432.86 90.31 432.86 90.31 432.86 90.31 432.86 90.31 432.09 90.31 432.09 90.31 432.86 91.08 432.86 91.08 432.86 91.08 432.86 91.08 432.86 91.08 432.86 91.08 432.86 91.08 432.86 91.08 433.62 91.08 432.86 91.08 433.62 91.84 432.86 91.84 432.86 91.84 432.86 91.84 432.86 91.84 433.62 91.84 433.62 91.84 433.62 91.84 433.62 92.61 433.62 92.61 433.62 92.61 433.62 92.61 433.62 92.61 434.39 92.61 435.15 93.37 435.15 93.37 435.92 93.37 435.92 93.37 435.92 93.37 435.92 94.14 435.92 94.14 435.92 94.14 435.92 94.9 435.92 94.9 436.68 94.9 436.68 94.9 437.44 94.9 437.44 94.9 438.21 95.67 438.21 95.67 438.97 96.44 439.74 96.44 439.74 96.44 439.74 97.2 440.5 97.2 440.5 97.2 440.5 97.2 440.5 97.2 440.5 97.97 440.5 98.73 439.74 98.73 439.74 98.73 439.74 98.73 439.74 98.73 439.74 98.73 438.97 99.5 438.97 98.73 438.21 98.73 437.44 100.26 437.44 101.03 438.21 101.79 437.44 101.79 438.21 101.79 439.74 101.79 440.5 102.56 441.27 103.32 444.33 104.09 445.09 104.09 444.33 104.85 444.33 104.85 445.09 104.85 446.62 105.62 447.39 106.38 447.39 106.38 446.62 107.15 446.62 107.92 446.62 107.92 446.62 107.92 446.62 108.68 445.09 107.92 444.33 107.15 444.33 107.15 442.8 105.62 442.03 105.62 442.8 107.15 443.56 107.15 444.33 108.68 446.62 109.45 446.62 109.45 445.09 109.45 445.86 109.45 446.62 109.45 447.39 110.98 447.39 110.98 447.39 110.98 446.62 110.98 445.86 110.21 445.86 110.21 445.86 110.21 445.86 110.98 445.86 110.98 445.86 111.74 445.86 111.74 443.56 110.21 443.56 110.21 443.56 110.98 444.33 111.74 445.86 112.51 445.86 112.51 445.86 112.51 446.62 113.27 446.62 112.51 447.39 113.27 445.86 113.27 447.39 113.27 447.39 114.04 445.86 114.04 445.86 114.8 445.09 113.27 445.09 113.27 444.33 113.27 444.33 113.27 444.33 113.27 444.33 112.51 443.56 112.51 443.56 112.51 442.8 112.51 442.8 111.74 442.03 111.74 442.03 110.98 442.03 111.74 441.27 111.74 441.27 112.51 442.8 112.51 442.8 112.51 443.56 112.51 443.56 113.27 443.56 114.04 444.33 114.04 444.33 114.04 444.33 114.04 445.09 114.8 445.09 114.8 445.09 114.8 445.09 115.57 444.33 115.57 444.33 116.33 445.09 115.57 445.86 115.57 446.62 114.8 446.62 115.57 445.86 115.57 445.86 115.57 446.62 115.57 447.39 115.57 446.62 114.8 447.39 114.8 448.15 114.8 448.15 114.8 448.92 114.8 449.68 114.8 451.21 118.63 451.98 121.69 454.27 125.52 452.74 123.22 451.98 123.22 451.98 121.69 450.45 118.63 450.45 117.86 450.45 117.1 449.68 118.63 450.45 118.63 450.45 119.39 449.68 119.39 449.68 118.63 449.68 118.63 448.92 117.86 449.68 118.63 449.68 118.63 448.92 118.63 449.68 119.39 450.45 119.39 449.68 119.39 450.45 120.16 450.45 119.39 450.45 120.16 451.98 122.46 451.98 123.22 451.21 122.46 450.45 120.93 450.45 120.93 450.45 120.93 449.68 120.93 450.45 121.69 449.68 121.69 448.15 120.93 447.39 120.93 448.92 121.69 448.15 122.46 447.39 121.69 447.39 121.69 447.39 122.46 445.09 122.46 445.86 123.22 445.09 123.22 444.33 123.22 443.56 123.22 443.56 123.22 443.56 123.22 442.8 121.69 443.56 120.93 442.8 120.16 441.27 120.16 442.8 120.93 443.56 120.93 442.8 121.69 442.8 122.46 443.56 123.22 442.8 123.99 443.56 123.99 445.86 123.99 446.62 123.99 448.15 123.99 448.92 123.99 449.68 123.99 448.92 125.52 449.68 126.28 448.15 126.28 448.92 126.28 449.68 126.28 449.68 124.75 451.21 123.99 451.98 124.75 451.98 126.28 451.98 127.05 450.45 127.05 448.92 128.58 448.15 129.34 445.09 128.58 445.09 128.58 445.86 127.81 445.86 127.81 445.09 127.05 445.09 127.81 443.56 127.81 444.33 128.58 443.56 128.58 439.74 127.81 440.5 128.58 443.56 129.34 444.33 130.11 444.33 130.11 445.09 130.11 445.09 130.11 443.56 130.88 444.33 131.64 444.33 132.41 443.56 132.41 442.03 133.17 441.27 132.41 441.27 132.41 439.74 131.64 439.74 131.64 439.74 132.41 440.5 132.41 441.27 133.17 443.56 133.94 443.56 133.17 445.09 133.17 445.86 132.41 445.86 133.17 446.62 133.17 446.62 133.17 446.62 133.17 445.09 134.7 444.33 135.47 439.74 135.47 438.97 134.7 439.74 135.47 438.97 136.23 435.92 137.76 435.15 137.76 435.15 137.76 435.15 138.53 433.62 139.29 432.86 140.06 432.09 141.59 432.09 141.59 431.33 140.06 432.09 142.36 431.33 143.12 425.97 143.12 425.21 142.36 421.38 139.29 418.33 136.23 417.56 136.23 416.03 134.7 416.03 134.7 413.74 134.7 409.91 134.7 407.62 134.7 405.32 134.7 405.32 133.17 405.32 132.41 404.56 132.41 404.56 131.64 403.03 132.41 403.03 132.41 403.03 131.64 403.03 131.64 403.03 131.64 400.74 130.88 399.97 130.88 396.91 130.88 395.38 130.88 394.62 130.88 392.32 130.88 391.56 130.88 391.56 130.88 390.79 130.88 390.79 130.88 390.79 130.88 390.79 130.88 390.03 130.88 390.03 130.88 389.26 131.64 389.26 131.64 388.5 131.64 387.74 131.64 387.74 131.64 387.74 131.64 386.97 131.64 386.21 132.41 385.44 132.41 383.91 132.41 380.09 133.17 380.09 133.17 376.26 133.17 376.26 133.17 374.73 133.17 373.2 133.17 370.15 133.17 368.62 133.17 368.62 133.17 367.09 133.17 367.09 133.17 364.03 133.17 363.26 133.17 362.5 133.17 360.97 133.17 358.67 133.17 354.85 133.17 354.85 133.17 350.26 132.41 349.5 132.41 346.44 132.41 346.44 132.41 342.61 132.41 338.79 132.41 337.26 132.41 337.26 132.41 335.73 132.41 335.73 132.41 331.91 132.41 331.91 132.41 329.61 132.41 328.08 132.41 326.55 132.41 323.5 132.41 323.5 132.41 317.38 132.41 318.14 132.41 318.91 132.41 318.91 132.41 318.91 131.64 318.91 131.64 318.91 131.64 319.67 131.64 319.67 131.64 319.67 130.88 319.67 130.88 319.67 130.88 319.67 130.11 319.67 130.11 318.91 130.11 318.91 130.11 318.91 130.11 319.67 130.11 319.67 129.34 319.67 129.34 319.67 129.34 319.67 129.34 319.67 128.58 319.67 128.58 319.67 129.34 318.91 129.34 318.91 129.34 318.91 128.58 319.67 128.58 319.67 128.58 319.67 128.58 319.67 128.58 319.67 128.58 319.67 128.58 320.44 128.58 320.44 128.58 320.44 127.81 320.44 127.81 320.44 127.81 320.44 127.81 321.2 127.81 321.2 127.81 321.2 127.81 321.2 127.81 321.2 127.05 321.2 127.05 321.97 127.05 321.97 127.05 321.97 127.05 321.97 126.28 321.97 126.28 321.2 127.05 321.2 126.28 321.2 126.28 321.2 126.28 321.2 125.52 321.97 125.52 321.97 125.52 322.73 125.52 322.73 125.52 322.73 125.52 322.73 125.52 323.5 124.75 323.5 124.75 322.73 124.75 322.73 124.75 322.73 124.75 322.73 123.99 323.5 123.99 323.5 124.75 323.5 124.75 323.5 123.99 323.5 123.99 323.5 123.99 323.5 123.22 323.5 123.22 323.5 122.46 323.5 122.46 324.26 122.46 324.26 122.46 324.26 121.69 323.5 121.69 323.5 120.93 323.5 120.93 323.5 120.93 324.26 120.93 325.02 120.93 325.02 120.93 325.02 120.93 324.26 120.93 324.26 120.16 324.26 120.16 325.02 120.16 325.02 120.16 325.02 120.16 325.02 119.39 325.02 119.39 325.02 118.63"/><polygon class="cls-8" points="451.21 110.21 451.21 110.21 451.98 110.21 451.21 110.21 450.45 110.98 450.45 113.27 449.68 113.27 449.68 111.74 450.45 109.45 450.45 110.21 450.45 109.45 450.45 109.45 451.21 109.45 450.45 109.45 450.45 108.68 450.45 108.68 450.45 108.68 451.98 107.92 451.98 107.15 452.74 106.38 452.74 106.38 451.98 105.62 452.74 105.62 452.74 105.62 453.5 104.85 455.8 104.85 453.5 107.92 453.5 107.92 452.74 108.68 452.74 109.45 451.98 109.45 451.98 109.45 452.74 109.45 451.21 110.21"/><polygon class="cls-8" points="454.27 126.28 454.27 125.52 455.03 127.05 454.27 130.88 451.98 130.88 452.74 130.88 454.27 130.11 454.27 127.81 454.27 126.28"/><polygon class="cls-8" points="445.09 136.23 444.33 136.23 445.09 136.23 445.09 135.47 445.86 134.7 446.62 134.7 447.39 133.94 445.09 135.47 445.09 136.23"/><polygon class="cls-8" points="449.68 132.41 449.68 131.64 451.21 130.88 451.98 130.88 451.21 130.88 450.45 131.64 449.68 132.41 449.68 132.41"/><polygon class="cls-8" points="456.56 104.85 456.56 104.85 456.56 105.62 455.8 106.38 455.8 106.38 455.8 105.62 455.8 105.62 455.8 105.62 456.56 104.85"/><polygon class="cls-9" points="474.15 40.56 475.68 40.56 481.8 40.56 487.92 40.56 490.98 40.56 490.98 39.8 491.74 39.03 492.51 38.27 491.74 38.27 492.51 38.27 493.27 37.5 494.8 38.27 494.8 37.5 496.33 37.5 497.1 38.27 497.1 37.5 497.86 36.74 497.86 36.74 497.86 36.74 499.39 36.74 498.63 35.97 500.16 34.44 501.69 33.68 501.69 32.91 502.45 32.15 503.21 31.38 502.45 31.38 502.45 30.61 502.45 30.61 503.21 29.85 502.45 29.08 503.21 28.32 504.74 27.55 504.74 26.02 505.51 24.49 512.39 17.6 513.92 18.37 513.92 19.9 515.45 19.9 518.51 19.13 520.04 19.13 520.8 18.37 521.57 18.37 525.39 21.43 525.39 31.38 526.16 32.15 525.39 32.15 526.16 32.91 525.39 32.91 525.39 34.44 526.16 34.44 526.16 34.44 526.92 34.44 528.45 35.21 529.22 35.97 528.45 35.97 529.22 36.74 528.45 37.5 528.45 38.27 529.98 39.03 529.98 39.03 531.51 39.03 531.51 39.03 532.28 40.56 531.51 41.33 533.04 42.09 533.04 42.09 530.75 43.63 529.98 43.63 529.22 42.86 527.69 44.39 526.92 44.39 525.39 44.39 524.63 44.39 524.63 45.16 523.86 45.16 523.86 45.16 523.86 45.16 523.1 45.92 523.1 45.92 522.33 45.16 521.57 45.16 520.04 45.92 520.04 45.16 518.51 45.92 518.51 46.69 518.51 47.45 516.98 46.69 516.22 46.69 516.22 45.92 516.98 45.16 516.98 44.39 516.22 43.63 516.22 43.63 515.45 43.63 516.22 44.39 516.22 45.16 514.69 45.92 514.69 47.45 513.92 47.45 513.92 48.98 512.39 49.75 511.63 50.51 510.86 49.75 510.86 49.75 510.1 50.51 509.33 51.28 508.57 51.28 508.57 49.75 508.57 48.98 507.8 50.51 507.8 50.51 507.8 51.28 507.8 52.04 507.04 51.28 507.04 49.75 507.04 48.98 507.04 48.98 506.27 49.75 507.04 52.04 507.04 52.04 506.27 52.04 506.27 51.28 506.27 50.51 506.27 51.28 505.51 52.04 505.51 51.28 505.51 51.28 504.74 51.28 503.98 51.28 503.21 52.81 503.21 53.58 501.69 53.58 501.69 55.11 500.92 55.87 500.16 55.87 499.39 58.17 497.86 57.4 497.1 57.4 497.1 58.17 497.1 58.17 497.1 58.17 497.86 58.17 498.63 58.17 497.86 60.46 498.63 61.99 499.39 61.99 499.39 62.76 497.86 62.76 497.1 64.29 496.33 64.29 495.57 65.82 496.33 65.82 497.1 65.82 497.86 65.82 497.86 65.82 498.63 66.59 499.39 68.12 500.16 68.88 500.16 69.65 500.92 70.41 502.45 70.41 501.69 70.41 503.21 70.41 504.74 70.41 505.51 69.65 503.98 68.12 502.45 67.35 503.98 67.35 504.74 68.12 505.51 68.88 506.27 70.41 505.51 71.18 501.69 71.94 500.92 71.94 499.39 72.71 499.39 71.94 499.39 70.41 497.1 71.18 497.1 71.18 495.57 72.71 494.8 72.71 494.04 72.71 494.04 71.18 494.04 70.41 493.27 71.18 492.51 70.41 492.51 70.41 492.51 71.18 491.74 71.18 491.74 72.71 491.74 73.47 489.45 74.24 487.92 74.24 484.1 75 483.33 75 483.33 74.24 483.33 75 481.8 75 477.98 75 476.45 75.77 471.09 77.3 470.33 78.07 470.33 78.83 468.8 78.83 468.04 80.36 467.27 80.36 467.27 80.36 466.51 80.36 466.51 81.13 465.74 81.89 465.74 82.66 466.51 82.66 467.27 82.66 468.8 83.42 468.04 85.72 467.27 85.72 467.27 85.72 468.04 85.72 468.04 85.72 467.27 85.72 467.27 86.48 466.51 88.02 466.51 89.55 465.74 90.31 464.98 90.31 464.98 91.08 464.21 91.08 464.21 91.08 464.21 91.84 464.21 92.61 461.92 93.37 462.68 93.37 462.68 93.37 461.15 95.67 460.39 95.67 460.39 96.44 459.62 96.44 460.39 94.9 459.62 94.14 458.86 94.14 458.09 94.14 455.03 92.61 454.27 91.08 454.27 90.31 453.5 90.31 454.27 89.55 453.5 90.31 453.5 90.31 453.5 91.84 454.27 92.61 455.03 93.37 455.03 94.9 455.8 95.67 455.8 96.44 457.33 97.2 458.09 97.97 458.86 101.03 458.09 101.79 458.09 101.03 458.09 101.03 457.33 101.79 457.33 102.56 456.56 103.32 455.8 104.09 455.8 104.85 453.5 104.85 452.74 105.62 451.21 104.85 451.98 104.09 450.45 103.32 451.21 102.56 451.21 102.56 451.98 102.56 450.45 102.56 451.21 101.79 451.21 101.79 450.45 102.56 449.68 102.56 449.68 101.79 448.92 102.56 447.39 101.03 447.39 100.26 448.15 100.26 447.39 99.5 449.68 99.5 449.68 99.5 449.68 99.5 448.92 99.5 448.92 98.73 448.15 98.73 447.39 97.97 447.39 97.97 446.62 98.73 446.62 98.73 447.39 97.2 448.15 97.97 448.15 97.97 448.92 97.2 448.92 97.2 448.92 96.44 448.92 96.44 448.92 96.44 448.15 95.67 448.92 94.9 447.39 94.9 447.39 94.9 448.15 94.14 448.92 92.61 449.68 92.61 451.21 92.61 449.68 91.84 450.45 91.08 449.68 91.08 449.68 90.31 448.92 91.08 448.15 91.84 447.39 92.61 446.62 91.84 445.86 93.37 445.09 93.37 444.33 93.37 444.33 93.37 444.33 94.14 444.33 94.14 444.33 94.14 444.33 94.14 445.86 94.9 445.09 96.44 445.09 97.97 445.09 98.73 445.09 100.26 445.86 101.79 445.86 101.79 445.86 101.79 445.09 101.79 445.09 101.03 443.56 101.03 446.62 103.32 446.62 104.85 444.33 103.32 442.8 102.56 442.03 101.79 441.27 102.56 440.5 101.79 440.5 101.03 438.21 101.79 438.21 101.03 438.21 100.26 439.74 98.73 439.74 98.73 439.74 98.73 439.74 98.73 439.74 98.73 440.5 98.73 440.5 97.97 441.27 97.2 440.5 96.44 440.5 95.67 439.74 96.44 438.97 96.44 438.21 95.67 438.21 95.67 437.44 94.9 437.44 94.9 436.68 94.9 436.68 94.9 435.92 94.9 435.92 94.9 435.92 94.14 435.92 94.14 435.92 94.14 435.92 93.37 435.92 93.37 435.92 93.37 435.15 93.37 435.15 93.37 434.39 92.61 433.62 92.61 433.62 92.61 433.62 92.61 433.62 92.61 433.62 92.61 433.62 91.84 433.62 91.84 433.62 91.84 432.86 91.84 432.86 91.84 432.86 91.84 432.86 91.84 433.62 91.84 432.86 91.08 433.62 91.08 432.86 91.08 432.86 91.08 432.86 91.08 432.86 91.08 432.86 91.08 432.86 91.08 432.86 91.08 432.86 91.08 432.09 90.31 432.09 90.31 432.86 90.31 432.86 90.31 432.86 90.31 432.86 90.31 432.09 90.31 432.09 90.31 432.09 90.31 432.09 90.31 432.09 90.31 432.09 90.31 432.09 90.31 431.33 90.31 431.33 90.31 431.33 90.31 430.56 89.55 429.8 89.55 429.8 89.55 429.03 89.55 429.03 89.55 429.03 89.55 429.03 90.31 428.27 89.55 428.27 90.31 427.5 90.31 427.5 90.31 427.5 90.31 427.5 90.31 427.5 90.31 426.74 90.31 427.5 91.08 427.5 91.08 426.74 91.08 426.74 91.08 426.74 91.08 425.97 91.08 425.97 91.08 425.21 91.08 425.21 91.08 425.21 91.08 424.44 90.31 424.44 90.31 424.44 90.31 424.44 90.31 424.44 90.31 424.44 90.31 424.44 90.31 424.44 90.31 424.44 89.55 423.68 90.31 423.68 90.31 423.68 90.31 423.68 90.31 423.68 90.31 422.91 91.08 422.15 91.84 422.15 91.84 421.38 91.08 421.38 91.08 421.38 91.08 421.38 91.08 421.38 91.84 421.38 91.84 420.62 91.84 420.62 91.84 420.62 91.84 419.86 92.61 419.86 92.61 419.09 93.37 419.09 93.37 418.33 93.37 418.33 94.14 417.56 94.14 417.56 94.14 417.56 88.78 415.27 88.78 413.74 88.78 409.15 88.78 408.38 88.78 408.38 87.25 408.38 86.48 408.38 84.95 408.38 82.66 408.38 81.89 408.38 80.36 408.38 78.83 408.38 78.07 408.38 75.77 408.38 72.71 408.38 72.71 408.38 69.65 408.38 68.12 415.27 65.82 418.33 64.29 419.09 63.52 420.62 62.76 421.38 61.99 423.68 60.46 422.91 58.93 422.91 58.93 422.91 58.17 421.38 58.17 421.38 57.4 421.38 56.64 426.74 55.11 431.33 55.11 433.62 55.87 435.15 56.64 437.44 56.64 441.27 56.64 442.8 55.87 442.8 55.87 444.33 55.11 445.86 54.34 447.39 53.58 448.15 52.81 448.15 52.81 447.39 51.28 448.15 50.51 448.92 50.51 448.92 49.75 448.15 48.98 447.39 48.98 446.62 48.98 451.21 45.92 451.98 45.16 455.8 42.09 459.62 40.56 461.15 40.56 468.04 40.56 474.15 40.56"/><polygon class="cls-9" points="470.33 80.36 469.56 80.36 468.8 80.36 469.56 81.13 468.04 81.13 468.04 80.36 468.8 79.6 468.8 78.83 470.33 79.6 470.33 78.83 471.86 78.07 473.39 78.07 473.39 78.07 475.68 78.07 476.45 78.07 477.21 77.3 481.04 77.3 484.1 75.77 484.1 75.77 483.33 76.53 482.57 77.3 481.8 77.3 481.04 78.07 482.57 78.07 484.1 77.3 484.86 77.3 485.63 77.3 487.15 76.53 487.92 76.53 487.15 77.3 481.8 78.83 473.39 80.36 470.33 81.13 468.8 81.13 470.33 81.13 470.33 80.36"/><polygon class="cls-9" points="520.04 45.92 520.04 45.92 520.04 45.92 521.57 45.92 522.33 46.69 520.8 46.69 520.8 47.45 520.04 47.45 520.04 45.92"/><polygon class="cls-9" points="499.39 73.47 500.16 72.71 500.16 73.47 500.16 73.47 500.16 73.47 500.92 74.24 498.63 74.24 497.86 74.24 497.1 74.24 497.86 74.24 497.86 74.24 497.86 73.47 498.63 73.47 499.39 72.71 499.39 73.47"/><polygon class="cls-9" points="465.74 81.89 465.74 81.89 466.51 81.13 467.27 80.36 468.04 81.13 467.27 81.89 466.51 81.89 465.74 81.89"/><polygon class="cls-9" points="504.74 74.24 504.74 74.24 504.74 74.24 503.98 74.24 504.74 74.24 504.74 73.47 505.51 74.24 505.51 75 503.98 75 503.21 75 503.21 74.24 503.98 75 504.74 74.24"/><polygon class="cls-9" points="493.27 71.94 494.04 71.18 494.04 72.71 493.27 72.71 492.51 73.47 493.27 71.94"/><polygon class="cls-9" points="447.39 96.44 447.39 96.44 446.62 96.44 446.62 96.44 446.62 96.44 446.62 96.44 446.62 97.2 446.62 97.2 446.62 96.44 447.39 95.67 447.39 95.67 447.39 96.44 447.39 96.44 447.39 96.44"/><polygon class="cls-9" points="474.92 81.13 474.92 80.36 474.92 80.36 477.21 80.36 478.74 79.6 479.51 79.6 479.51 79.6 479.51 79.6 477.98 80.36 477.21 80.36 474.92 81.13 474.92 81.13"/><polygon class="cls-9" points="456.56 104.85 456.56 104.85 457.33 104.09 457.33 103.32 458.09 101.79 457.33 104.09 456.56 104.85 456.56 104.85"/><polygon class="cls-10" points="344.14 174.5 344.14 174.5 344.14 175.27 342.61 176.03 342.61 176.03 341.08 176.8 338.79 176.8 341.08 176.8 341.08 176.03 339.56 175.27 339.56 172.97 338.79 172.21 338.03 176.03 335.73 175.27 334.97 175.27 334.97 172.21 334.97 169.91 334.97 168.38 334.97 165.32 334.97 163.02 334.97 161.49 334.97 158.43 334.97 157.66 335.73 155.37 335.73 151.54 335.73 151.54 336.5 148.48 336.5 146.18 336.5 144.65 337.26 141.59 337.26 140.82 337.26 139.29 337.26 137.76 338.03 137 338.03 133.94 338.03 133.94 338.03 133.17 337.26 132.41 337.26 132.41 338.79 132.41 342.61 132.41 346.44 132.41 346.44 132.41 349.5 132.41 350.26 132.41 354.85 133.17 354.85 133.17 358.67 133.17 360.97 133.17 362.5 133.17 363.26 133.17 364.03 133.17 367.09 133.17 367.09 133.17 368.62 133.17 368.62 133.17 370.15 133.17 373.2 133.17 374.73 133.17 376.26 133.17 376.26 133.17 380.09 133.17 380.09 133.17 383.91 132.41 385.44 132.41 386.21 132.41 386.97 131.64 387.74 131.64 387.74 131.64 387.74 131.64 388.5 131.64 389.26 131.64 389.26 131.64 390.03 130.88 390.03 130.88 390.79 130.88 390.79 130.88 390.79 130.88 390.79 130.88 391.56 130.88 391.56 130.88 392.32 130.88 394.62 130.88 395.38 130.88 396.91 130.88 399.97 130.88 400.74 130.88 403.03 131.64 403.03 131.64 403.03 131.64 403.03 132.41 403.03 132.41 404.56 131.64 404.56 132.41 405.32 132.41 405.32 133.17 405.32 134.7 407.62 134.7 409.91 134.7 413.74 134.7 416.03 134.7 416.03 134.7 417.56 136.23 418.33 136.23 421.38 139.29 425.21 142.36 425.97 143.12 425.21 143.12 425.97 143.12 423.68 144.65 422.15 146.18 420.62 146.95 420.62 148.48 420.62 147.71 419.86 148.48 419.86 149.24 419.86 150.01 419.09 150.01 419.09 150.01 419.09 150.01 418.33 150.78 416.8 150.78 416.03 151.54 416.8 151.54 416.8 152.31 415.27 153.07 413.74 153.07 414.5 151.54 413.74 152.31 413.74 152.31 412.97 152.31 412.97 153.07 413.74 153.84 413.74 153.84 412.97 154.6 410.68 155.37 409.91 156.13 409.91 155.37 409.15 154.6 409.15 154.6 409.15 156.13 408.38 156.13 407.62 155.37 407.62 156.13 406.85 155.37 406.85 156.13 408.38 156.13 409.15 156.9 408.38 157.66 406.85 157.66 406.85 157.66 406.09 156.9 405.32 156.13 405.32 156.13 405.32 155.37 404.56 155.37 405.32 156.9 405.32 158.43 404.56 159.96 403.03 159.19 404.56 160.72 403.8 160.72 403.8 161.49 402.27 161.49 402.27 161.49 401.5 161.49 401.5 161.49 401.5 161.49 401.5 161.49 400.74 160.72 401.5 161.49 401.5 161.49 401.5 161.49 402.27 161.49 402.27 161.49 403.03 162.25 403.03 162.25 402.27 163.02 402.27 162.25 401.5 162.25 402.27 163.02 400.74 162.25 402.27 163.79 402.27 163.79 401.5 163.79 401.5 164.55 401.5 165.32 401.5 165.32 400.74 166.85 399.97 166.85 399.97 166.85 399.97 167.61 399.97 166.85 400.74 166.85 400.74 167.61 399.97 168.38 398.44 168.38 398.44 169.14 399.21 169.14 398.44 169.14 399.21 169.91 398.44 169.91 399.21 169.91 398.44 170.67 399.21 172.21 398.44 172.21 399.21 173.74 399.21 173.74 399.21 174.5 399.21 175.27 399.21 175.27 399.97 176.8 400.74 179.86 400.74 180.62 401.5 181.39 401.5 182.15 402.27 184.45 403.03 185.22 405.32 189.81 406.09 190.57 405.32 189.81 405.32 189.81 406.09 193.63 408.38 198.99 408.38 198.99 408.38 198.99 409.15 200.52 409.91 201.29 410.68 204.35 411.44 205.12 410.68 204.35 409.91 204.35 409.91 204.35 409.91 204.35 410.68 205.12 411.44 205.88 412.21 206.65 411.44 206.65 412.21 208.18 412.21 212.77 411.44 215.83 411.44 218.13 409.91 219.66 409.91 220.42 409.91 221.19 409.15 222.72 409.15 223.48 407.62 223.48 406.09 223.48 405.32 223.48 403.8 224.25 402.27 224.25 402.27 223.48 402.27 222.72 402.27 221.95 403.8 223.48 403.8 223.48 404.56 222.72 403.8 221.95 402.27 221.19 401.5 218.89 401.5 218.89 401.5 217.36 398.44 216.59 396.91 216.59 396.91 215.83 396.15 215.06 396.15 213.53 396.15 212.77 395.38 212 394.62 211.24 394.62 211.24 395.38 211.24 395.38 209.71 396.15 209.71 395.38 209.71 394.62 210.47 393.85 211.24 393.85 208.94 393.85 208.94 393.85 208.18 393.85 207.41 394.62 206.65 394.62 206.65 394.62 206.65 394.62 206.65 393.09 207.41 392.32 206.65 391.56 206.65 392.32 206.65 393.09 207.41 393.09 208.94 391.56 208.18 390.79 207.41 390.79 206.65 390.79 207.41 391.56 207.41 390.79 207.41 390.03 204.35 389.26 204.35 390.03 204.35 389.26 204.35 389.26 203.58 389.26 202.82 387.74 202.05 388.5 202.05 388.5 202.05 387.74 202.05 390.03 202.05 390.03 202.05 390.79 202.05 389.26 202.05 388.5 202.05 389.26 201.29 389.26 201.29 388.5 201.29 389.26 201.29 389.26 200.52 390.79 198.99 390.79 198.23 390.03 198.23 390.03 198.99 390.03 198.99 389.26 198.23 388.5 197.46 388.5 197.46 387.74 196.7 388.5 197.46 387.74 197.46 388.5 197.46 387.74 198.23 389.26 198.23 388.5 198.99 388.5 199.76 388.5 199.76 386.97 198.99 387.74 199.76 387.74 200.52 386.97 198.99 386.97 195.93 388.5 193.63 388.5 191.34 387.74 189.81 388.5 189.81 388.5 189.04 387.74 188.28 386.97 186.75 384.68 186.75 384.68 185.98 383.91 185.22 383.91 185.22 383.91 185.22 383.15 184.45 381.62 183.69 381.62 182.15 380.09 181.39 379.32 179.86 376.26 178.33 375.5 178.33 374.73 178.33 373.97 177.56 372.44 178.33 372.44 179.09 371.68 179.09 371.68 179.09 372.44 179.09 372.44 179.86 371.68 179.86 367.85 181.39 367.09 180.62 367.09 181.39 364.79 181.39 363.26 182.15 363.26 180.62 363.26 179.86 363.26 179.86 363.26 180.62 363.26 182.15 364.03 181.39 364.03 180.62 363.26 179.86 360.97 178.33 361.73 178.33 362.5 179.09 363.26 178.33 362.5 178.33 363.26 179.09 363.26 178.33 363.26 178.33 362.5 178.33 361.73 177.56 360.2 177.56 360.2 176.8 360.97 176.8 361.73 176.03 360.2 176.8 359.44 176.03 358.67 176.03 358.67 176.8 359.44 176.8 360.2 177.56 357.91 176.03 354.09 175.27 352.56 175.27 354.09 175.27 355.62 175.27 355.62 175.27 356.38 175.27 356.38 175.27 355.62 174.5 354.09 174.5 353.32 174.5 351.79 175.27 350.26 175.27 346.44 176.03 348.73 174.5 347.97 174.5 348.73 173.74 347.97 173.74 347.97 174.5 347.2 173.74 346.44 173.74 346.44 174.5 345.67 175.27 344.14 176.03 344.14 175.27 344.91 175.27 344.91 174.5 344.14 174.5"/><polygon class="cls-10" points="406.09 189.81 407.62 192.1 408.38 192.87 407.62 193.63 406.85 193.63 407.62 192.1 407.62 192.1 406.85 191.34 406.85 192.1 405.32 191.34 405.32 191.34 406.09 190.57 406.09 190.57 406.85 191.34 406.09 189.81"/><polygon class="cls-10" points="406.85 192.1 406.85 192.1 407.62 192.1 406.85 193.63 406.85 194.4 407.62 195.93 406.09 193.63 406.85 192.1"/><polygon class="cls-10" points="410.68 221.95 409.91 223.48 407.62 225.78 409.91 223.48 409.91 222.72 409.15 222.72 410.68 221.95"/><polygon class="cls-10" points="399.21 170.67 399.97 169.91 399.97 169.91 399.21 172.21 399.21 172.21 399.21 170.67 399.21 170.67 399.21 170.67"/><polygon class="cls-10" points="406.09 158.43 406.09 157.66 406.85 158.43 405.32 159.19 406.09 158.43"/><polygon class="cls-10" points="349.5 175.27 345.67 176.03 345.67 176.03 345.67 176.03 345.67 176.03 346.44 176.03 347.2 176.03 347.97 175.27 348.73 175.27 349.5 175.27 350.26 175.27 351.79 175.27 352.56 175.27 352.56 175.27 352.56 175.27 351.03 175.27 350.26 175.27 349.5 175.27"/><polygon class="cls-10" points="393.09 210.47 393.85 211.24 393.85 211.24 393.09 209.71 393.09 209.71 393.09 209.71 393.09 210.47"/><polygon class="cls-10" points="406.09 189.81 406.09 189.81 405.32 189.04 404.56 188.28 404.56 187.51 404.56 187.51 404.56 188.28 406.09 189.81"/><polygon class="cls-11" points="319.67 128.58 318.91 128.58 318.91 129.34 318.91 129.34 319.67 129.34 319.67 128.58 319.67 128.58 319.67 129.34 319.67 129.34 319.67 129.34 319.67 129.34 319.67 130.11 318.91 130.11 318.91 130.11 318.91 130.11 319.67 130.11 319.67 130.11 319.67 130.88 319.67 130.88 319.67 130.88 319.67 131.64 319.67 131.64 318.91 131.64 318.91 131.64 318.91 131.64 318.91 132.41 318.91 132.41 318.14 132.41 317.38 132.41 323.5 132.41 323.5 132.41 326.55 132.41 328.08 132.41 329.61 132.41 331.91 132.41 331.91 132.41 335.73 132.41 335.73 132.41 337.26 132.41 338.03 133.17 338.03 133.94 338.03 133.94 338.03 137 337.26 137.76 337.26 139.29 337.26 140.82 337.26 141.59 336.5 144.65 336.5 146.18 336.5 148.48 335.73 151.54 335.73 151.54 335.73 155.37 334.97 157.66 334.97 158.43 334.97 161.49 334.97 163.02 334.97 165.32 334.97 168.38 334.97 169.91 334.97 172.21 334.97 175.27 334.97 176.03 334.97 176.03 333.44 175.27 332.67 176.03 331.14 175.27 330.38 175.27 331.14 175.27 327.32 176.03 327.32 175.27 326.55 175.27 326.55 175.27 326.55 176.03 325.79 176.8 325.79 176.8 324.26 176.8 322.73 177.56 322.73 176.8 321.2 176.8 319.67 175.27 318.14 175.27 317.38 176.03 316.61 177.56 316.61 178.33 318.14 178.33 319.67 178.33 320.44 178.33 321.2 177.56 322.73 178.33 322.73 177.56 322.73 177.56 323.5 177.56 323.5 177.56 323.5 178.33 321.97 179.09 321.97 179.09 323.5 179.09 323.5 179.86 324.26 179.86 324.26 179.86 324.26 179.09 325.79 178.33 325.79 179.09 326.55 179.09 325.79 179.86 325.79 180.62 325.79 180.62 326.55 180.62 325.79 180.62 325.02 180.62 325.02 181.39 323.5 181.39 324.26 181.39 324.26 181.39 325.02 182.15 325.02 182.15 324.26 182.15 323.5 181.39 323.5 181.39 324.26 182.15 322.73 182.15 322.73 182.15 323.5 182.92 322.73 182.92 325.02 183.69 325.02 184.45 326.55 184.45 326.55 185.22 327.32 185.22 327.32 185.22 328.08 185.22 328.85 185.22 328.85 185.98 329.61 185.98 328.85 186.75 329.61 186.75 329.61 187.51 328.85 186.75 328.85 187.51 328.08 187.51 328.08 188.28 327.32 186.75 327.32 187.51 325.79 189.04 327.32 186.75 326.55 186.75 326.55 187.51 326.55 187.51 325.79 186.75 325.79 185.98 325.79 185.98 325.02 185.98 324.26 185.22 324.26 185.22 322.73 185.22 322.73 184.45 321.97 184.45 321.97 183.69 321.2 183.69 321.2 183.69 320.44 183.69 319.67 182.92 319.67 182.92 318.91 182.92 318.91 182.92 318.91 183.69 320.44 183.69 320.44 184.45 320.44 184.45 319.67 185.22 320.44 185.22 319.67 185.22 319.67 185.98 320.44 185.98 319.67 186.75 318.14 187.51 318.14 186.75 318.14 185.98 318.14 185.98 318.14 185.98 317.38 185.22 316.61 185.98 316.61 185.22 316.61 185.22 315.85 185.22 315.08 185.22 315.08 185.98 315.08 185.98 314.32 185.98 314.32 186.75 314.32 186.75 314.32 186.75 313.55 186.75 313.55 186.75 312.79 186.75 312.79 186.75 312.02 186.75 312.79 185.98 312.79 185.98 312.02 185.98 312.02 185.22 310.49 185.22 310.49 185.22 309.73 184.45 308.96 183.69 307.44 182.92 305.91 182.92 305.91 182.15 305.14 182.15 305.91 181.39 303.61 181.39 302.85 181.39 303.61 180.62 303.61 180.62 303.61 180.62 302.08 180.62 302.08 180.62 300.55 181.39 300.55 181.39 300.55 181.39 301.32 182.92 299.02 182.92 296.73 182.92 290.61 180.62 286.02 181.39 285.26 181.39 284.49 180.62 285.26 180.62 286.02 179.09 286.02 178.33 286.02 178.33 286.02 177.56 286.79 177.56 286.79 177.56 286.79 177.56 286.79 177.56 286.79 177.56 286.79 177.56 286.02 177.56 286.02 176.8 286.02 176.8 286.79 176.03 286.02 176.03 286.02 176.03 286.02 176.03 286.02 175.27 286.02 175.27 286.02 175.27 286.02 175.27 286.79 174.5 286.02 174.5 286.79 174.5 286.02 174.5 286.02 174.5 286.02 174.5 286.02 173.74 286.02 173.74 286.02 173.74 286.02 173.74 286.79 173.74 286.79 173.74 286.79 172.97 286.79 172.97 286.79 172.97 286.79 172.97 286.79 172.97 287.55 172.97 287.55 172.21 287.55 172.21 287.55 172.21 287.55 172.21 287.55 171.44 287.55 171.44 287.55 171.44 287.55 171.44 287.55 171.44 287.55 170.67 287.55 170.67 287.55 170.67 287.55 170.67 287.55 170.67 287.55 170.67 288.32 170.67 288.32 170.67 288.32 169.91 287.55 169.91 287.55 169.91 287.55 169.91 287.55 169.91 287.55 169.91 287.55 169.91 287.55 169.91 287.55 169.91 288.32 169.14 288.32 169.14 288.32 169.14 287.55 169.14 287.55 169.14 287.55 169.14 287.55 168.38 288.32 168.38 288.32 168.38 287.55 168.38 287.55 168.38 288.32 168.38 287.55 168.38 288.32 168.38 288.32 167.61 287.55 167.61 287.55 168.38 287.55 168.38 287.55 167.61 287.55 167.61 287.55 167.61 287.55 166.85 287.55 166.85 286.79 166.85 286.79 166.85 286.79 166.85 286.79 166.85 286.79 166.85 286.79 166.08 286.79 166.08 286.79 166.08 286.79 166.08 286.79 166.08 286.79 166.08 286.79 165.32 286.02 165.32 286.79 165.32 286.02 165.32 286.02 165.32 286.02 165.32 286.02 165.32 286.02 164.55 286.02 164.55 286.02 164.55 286.02 164.55 286.02 164.55 285.26 164.55 285.26 164.55 285.26 164.55 285.26 163.79 285.26 163.79 285.26 163.79 285.26 163.79 285.26 163.79 285.26 163.02 285.26 163.02 285.26 163.02 285.26 163.02 285.26 163.02 285.26 162.25 285.26 162.25 285.26 162.25 284.49 161.49 284.49 161.49 284.49 161.49 284.49 161.49 284.49 161.49 284.49 161.49 284.49 161.49 283.73 161.49 283.73 160.72 283.73 160.72 283.73 160.72 282.96 160.72 282.96 158.43 282.96 156.9 282.96 153.84 282.96 152.31 282.96 150.78 282.96 148.48 282.96 146.18 282.96 146.18 282.96 146.18 282.96 146.18 282.2 146.18 282.2 145.42 281.43 146.18 281.43 146.18 281.43 146.18 281.43 146.18 281.43 145.42 281.43 146.18 281.43 146.18 281.43 145.42 280.67 146.18 280.67 146.18 280.67 146.18 279.9 146.18 279.9 146.18 279.9 146.18 279.9 145.42 279.9 145.42 279.9 146.18 279.9 146.18 279.9 145.42 279.9 145.42 279.14 145.42 279.9 145.42 279.9 145.42 279.14 145.42 279.14 142.36 279.14 140.06 279.14 137 279.9 135.47 279.9 133.17 279.9 129.34 279.14 127.05 279.14 125.52 278.37 122.46 278.37 121.69 278.37 119.39 277.61 118.63 282.96 118.63 285.26 118.63 287.55 118.63 289.85 118.63 289.85 118.63 294.43 118.63 295.2 118.63 297.49 118.63 300.55 118.63 300.55 118.63 305.14 118.63 307.44 118.63 307.44 118.63 309.73 118.63 312.79 118.63 315.08 118.63 318.14 118.63 318.91 118.63 319.67 119.39 319.67 119.39 319.67 119.39 319.67 119.39 319.67 120.16 320.44 120.16 320.44 120.16 319.67 120.16 320.44 120.93 319.67 120.93 319.67 120.93 319.67 121.69 318.91 121.69 318.91 121.69 318.14 121.69 318.14 122.46 318.14 122.46 318.14 122.46 317.38 122.46 317.38 123.99 318.14 123.22 321.2 123.22 323.5 123.22 323.5 123.99 323.5 123.99 323.5 123.99 323.5 124.75 323.5 124.75 323.5 123.99 322.73 123.99 322.73 124.75 322.73 124.75 322.73 124.75 323.5 124.75 323.5 124.75 322.73 125.52 322.73 125.52 322.73 125.52 322.73 125.52 321.97 125.52 321.97 125.52 321.2 125.52 321.2 126.28 321.2 126.28 321.2 126.28 321.2 127.05 321.97 126.28 321.97 126.28 321.97 127.05 321.97 127.05 321.97 127.05 321.2 127.05 321.2 127.05 321.2 127.81 321.2 127.81 321.2 127.81 321.2 127.81 320.44 127.81 320.44 127.81 320.44 127.81 320.44 127.81 320.44 128.58 320.44 128.58 319.67 128.58 319.67 128.58 319.67 128.58 319.67 128.58 319.67 128.58 319.67 128.58"/><polygon class="cls-11" points="302.08 182.92 302.85 182.15 304.38 182.92 305.14 182.92 304.38 182.92 304.38 183.69 303.61 183.69 302.08 182.92"/><polygon class="cls-11" points="312.02 185.98 311.26 185.98 312.02 185.98 311.26 185.98 311.26 185.98 312.02 185.98 312.02 186.75 311.26 186.75 311.26 185.98 311.26 185.98 311.26 185.98 310.49 185.98 310.49 186.75 310.49 185.98 310.49 185.22 311.26 185.22 311.26 185.22 312.02 185.98"/><polygon class="cls-11" points="308.2 185.22 308.2 185.22 308.96 184.45 309.73 185.22 309.73 185.22 309.73 185.22 309.73 185.22 309.73 185.22 309.73 185.98 309.73 185.98 309.73 185.98 309.73 185.98 310.49 185.98 308.96 185.98 308.2 185.22"/><rect class="cls-12" x="426.74" y="153.84" width="26.77" height="8.42"/><text class="cls-13" transform="translate(460.39 162.25)"><tspan class="cls-14">0</tspan><tspan class="cls-15" x="4.6" y="0">.</tspan><tspan class="cls-14" x="6.89" y="0">53</tspan><tspan class="cls-16" x="16.09" y="0"> </tspan><tspan class="cls-17" x="18.39" y="0">(</tspan><tspan class="cls-18" x="21.44" y="0">m</tspan><tspan class="cls-19" x="27.57" y="0">i</tspan><tspan class="cls-14" x="29.11" y="0">n</tspan><tspan class="cls-19" x="33.7" y="0">i</tspan><tspan class="cls-18" x="35.24" y="0">m</tspan><tspan class="cls-14" x="41.37" y="0">u</tspan><tspan class="cls-18" x="45.97" y="0">m</tspan><tspan x="52.09" y="0">)</tspan></text><rect class="cls-20" x="426.74" y="167.61" width="26.77" height="8.42"/><text class="cls-13" transform="translate(460.39 176.03)"><tspan class="cls-14">0</tspan><tspan class="cls-15" x="4.6" y="0">.</tspan><tspan class="cls-14" x="6.89" y="0">6</tspan><tspan x="11.49" y="0">1</tspan></text><rect class="cls-21" x="426.74" y="181.39" width="26.77" height="8.42"/><text class="cls-13" transform="translate(460.39 189.81)"><tspan class="cls-14">0</tspan><tspan class="cls-15" x="4.6" y="0">.</tspan><tspan class="cls-14" x="6.89" y="0">66</tspan><tspan class="cls-16" x="16.09" y="0"> </tspan><tspan class="cls-17" x="18.39" y="0">(</tspan><tspan class="cls-18" x="21.44" y="0">m</tspan><tspan class="cls-14" x="27.57" y="0">ed</tspan><tspan class="cls-22" x="36.77" y="0">i</tspan><tspan class="cls-23" x="38.3" y="0">an</tspan><tspan x="47.5" y="0">)</tspan></text><rect class="cls-24" x="426.74" y="195.17" width="26.77" height="8.42"/><text class="cls-13" transform="translate(460.39 203.57)"><tspan class="cls-14">0</tspan><tspan class="cls-15" x="4.6" y="0">.</tspan><tspan class="cls-14" x="6.89" y="0">7</tspan><tspan x="11.49" y="0">8</tspan></text><rect class="cls-25" x="426.74" y="208.94" width="26.77" height="8.42"/><text class="cls-13" transform="translate(460.39 217.36)"><tspan class="cls-14">0</tspan><tspan class="cls-15" x="4.6" y="0">.</tspan><tspan class="cls-14" x="6.89" y="0">93</tspan><tspan class="cls-16" x="16.09" y="0"> </tspan><tspan class="cls-17" x="18.39" y="0">(</tspan><tspan class="cls-18" x="21.44" y="0">m</tspan><tspan class="cls-14" x="27.57" y="0">a</tspan><tspan class="cls-26" x="32.17" y="0">x</tspan><tspan class="cls-22" x="36.76" y="0">i</tspan><tspan class="cls-18" x="38.29" y="0">m</tspan><tspan class="cls-14" x="44.42" y="0">u</tspan><tspan class="cls-18" x="49.02" y="0">m</tspan><tspan x="55.15" y="0">)</tspan></text></svg>